<?xml version="1.0" encoding="utf-8"?>
<!-- Generator: Adobe Illustrator 16.0.0, SVG Export Plug-In . SVG Version: 6.00 Build 0)  -->
<!DOCTYPE svg PUBLIC "-//W3C//DTD SVG 1.1//EN" "http://www.w3.org/Graphics/SVG/1.1/DTD/svg11.dtd">
<svg version="1.1" id="Layer_1" xmlns="http://www.w3.org/2000/svg" xmlns:xlink="http://www.w3.org/1999/xlink" x="0px" y="0px"
	 width="229px" height="66px" viewBox="0 0 229 66" enable-background="new 0 0 229 66" xml:space="preserve">
<g>
	<path d="M11.66,34.71h12.92c0.77-2.42,1.43-4.84,1.98-7.37c0.99-0.22,1.92-0.11,2.91,0.22c0,3.46-0.17,6.87-0.6,10.34l-0.44,0.44
		c-3.41-0.11-9.07-0.11-12.92-0.11H9.18c-2.42,0-4.62,0.11-6.98,0.11c-0.33-0.88-0.44-1.76-0.44-2.64c1.59-0.17,3.19-0.55,4.78-1.04
		c0.22-1.04,0.27-2.2,0.27-3.35V12.66c0-3.24-0.11-5.55-0.27-7.59c-1.59-0.5-3.19-0.88-4.78-1.04c0-0.88,0.11-1.76,0.44-2.64
		c2.58,0,4.95,0.11,7.59,0.11c1.92,0,5.61,0,7.26-0.11c0.33,0.82,0.44,1.7,0.38,2.64c-1.65,0.49-3.52,0.88-5.55,1.04
		c-0.17,2.03-0.22,4.34-0.22,7.59V34.71z"/>
	<path d="M44.38,11.67c7.59,0,9.79,5.06,9.79,9.84c0,1.27-0.11,2.69-0.28,3.41l-0.44,0.44c-2.25-0.05-5.83-0.11-9.95-0.11h-6.38
		c0.27,4.45,2.09,9.84,7.48,9.84c2.42,0,5.33-0.66,8.74-1.98c0.66,0.5,0.88,1.15,0.93,1.98c-2.53,1.7-7.04,3.96-10.61,3.96
		c-7.86,0-11.16-5.83-11.16-13.31C32.51,18.93,37.4,11.67,44.38,11.67z M37.23,22.39h5.39c2.92,0,5.33-0.11,6.71-0.22
		c0-3.52-0.83-6.93-5.72-6.93c-1.16,0-3.08,0.39-3.74,1.04C38.61,17.66,37.62,19.81,37.23,22.39z"/>
	<path d="M66.71,12.22c0.17,0.66,0.44,1.92,0.66,3.13c3.13-2.31,6.1-3.68,9.24-3.68c4.84,0,7.59,2.69,7.59,8.8v10.28
		c0,1.48,0.06,2.8,0.17,4.12c1.43,0.17,3.13,0.55,4.12,0.99c0,0.82-0.11,1.98-0.39,2.47c-1.43-0.05-4.84-0.11-6.1-0.11
		c-2.25,0-4.56,0.11-6.71,0.11c-0.17-0.44-0.33-1.59-0.33-2.47c1.48-0.17,3.3-0.55,4.4-0.94c0.17-1.21,0.22-1.98,0.22-3.08v-9.24
		c0-4.12-0.66-7.15-5-7.15c-2.25,0-4.56,0.88-6.93,2.53v12.76c0,1.48,0.05,2.8,0.17,4.12c1.49,0.17,3.13,0.55,4.12,0.99
		c0,0.82-0.11,1.98-0.33,2.47c-1.49-0.05-4.84-0.11-6.16-0.11c-2.25,0-4.56,0.11-6.65,0.11c-0.22-0.44-0.38-1.59-0.38-2.47
		c1.54-0.17,3.3-0.55,4.4-0.94c0.17-1.21,0.22-1.98,0.22-3.08V16.84c-1.43-0.44-2.92-0.71-4.34-0.88c-0.22-0.71-0.33-1.48-0.22-2.14
		c2.04-0.82,5-1.7,7.81-1.98L66.71,12.22z"/>
	<path d="M94.65,15.79c-1.04-0.22-2.69-0.55-4.12-0.71c-0.22-0.71-0.22-1.48-0.11-2.2c1.26-0.33,2.7-0.55,4.23-0.66l1.82-7.48
		c0.88-0.06,1.76-0.06,2.8,0.33v7.26l8.58,0.11c0,1.21-0.05,2.25-0.22,3.35h-8.36V29.1c0,4.01,0.82,6.05,2.58,6.05
		c1.92,0,3.46-0.44,5.44-1.16c0.61,0.6,0.93,1.43,0.93,2.47c-2.2,1.32-5.39,2.58-8.52,2.58c-3.74,0-5.06-2.8-5.06-7.86V15.79z"/>
	<path d="M122.59,11.67c7.59,0,9.79,5.06,9.79,9.84c0,1.27-0.11,2.69-0.28,3.41l-0.44,0.44c-2.25-0.05-5.83-0.11-9.95-0.11h-6.38
		c0.27,4.45,2.09,9.84,7.48,9.84c2.42,0,5.33-0.66,8.74-1.98c0.66,0.5,0.88,1.15,0.93,1.98c-2.53,1.7-7.04,3.96-10.61,3.96
		c-7.86,0-11.16-5.83-11.16-13.31C110.71,18.93,115.61,11.67,122.59,11.67z M115.44,22.39h5.39c2.92,0,5.33-0.11,6.71-0.22
		c0-3.52-0.82-6.93-5.72-6.93c-1.15,0-3.08,0.39-3.74,1.04C116.82,17.66,115.83,19.81,115.44,22.39z"/>
	<path d="M141.79,31.8c2.14,0,3.79,1.48,3.79,3.52c0,2.09-1.65,3.74-3.79,3.74s-3.79-1.65-3.79-3.74
		C137.99,33.28,139.64,31.8,141.79,31.8z"/>
	<path d="M159.22,12.22c0.16,0.66,0.44,1.92,0.66,3.13c3.13-2.31,6.1-3.68,9.24-3.68c4.84,0,7.59,2.69,7.59,8.8v10.28
		c0,1.48,0.06,2.8,0.17,4.12c1.43,0.17,3.13,0.55,4.12,0.99c0,0.82-0.11,1.98-0.39,2.47c-1.43-0.05-4.84-0.11-6.1-0.11
		c-2.25,0-4.56,0.11-6.71,0.11c-0.16-0.44-0.33-1.59-0.33-2.47c1.48-0.17,3.3-0.55,4.4-0.94c0.16-1.21,0.22-1.98,0.22-3.08v-9.24
		c0-4.12-0.66-7.15-5-7.15c-2.25,0-4.56,0.88-6.93,2.53v12.76c0,1.48,0.06,2.8,0.17,4.12c1.48,0.17,3.13,0.55,4.12,0.99
		c0,0.82-0.11,1.98-0.33,2.47c-1.49-0.05-4.84-0.11-6.16-0.11c-2.25,0-4.56,0.11-6.65,0.11c-0.22-0.44-0.38-1.59-0.38-2.47
		c1.54-0.17,3.3-0.55,4.4-0.94c0.16-1.21,0.22-1.98,0.22-3.08V16.84c-1.43-0.44-2.91-0.71-4.34-0.88c-0.22-0.71-0.33-1.48-0.22-2.14
		c2.04-0.82,5-1.7,7.81-1.98L159.22,12.22z"/>
	<path d="M195.91,11.67c7.59,0,9.79,5.06,9.79,9.84c0,1.27-0.11,2.69-0.28,3.41l-0.44,0.44c-2.26-0.05-5.83-0.11-9.96-0.11h-6.38
		c0.28,4.45,2.09,9.84,7.48,9.84c2.42,0,5.34-0.66,8.74-1.98c0.66,0.5,0.88,1.15,0.94,1.98c-2.53,1.7-7.04,3.96-10.61,3.96
		c-7.87,0-11.16-5.83-11.16-13.31C184.03,18.93,188.92,11.67,195.91,11.67z M188.76,22.39h5.39c2.91,0,5.33-0.11,6.71-0.22
		c0-3.52-0.83-6.93-5.72-6.93c-1.16,0-3.08,0.39-3.74,1.04C190.13,17.66,189.14,19.81,188.76,22.39z"/>
	<path d="M213.56,15.79c-1.04-0.22-2.69-0.55-4.12-0.71c-0.22-0.71-0.22-1.48-0.11-2.2c1.27-0.33,2.7-0.55,4.23-0.66l1.82-7.48
		c0.88-0.06,1.76-0.06,2.8,0.33v7.26l8.58,0.11c0,1.21-0.05,2.25-0.22,3.35h-8.36V29.1c0,4.01,0.82,6.05,2.58,6.05
		c1.92,0,3.46-0.44,5.44-1.16c0.61,0.6,0.94,1.43,0.94,2.47c-2.2,1.32-5.39,2.58-8.52,2.58c-3.74,0-5.06-2.8-5.06-7.86V15.79z"/>
</g>
<g>
	<path d="M8.68,56.9c-0.77-0.03-1.55-0.06-2.26-0.06H5.41L4.5,58.92l1.3,0.29c-0.03,0.35-0.1,0.67-0.22,0.98
		c-0.59-0.03-1.46-0.03-2.05-0.03c-0.7,0-1.28,0.03-1.81,0.03c-0.05-0.32-0.03-0.66,0.02-0.98c0.4-0.05,0.82-0.16,1.23-0.3
		l4.27-9.28c0.53-0.16,1.18-0.26,1.92-0.26l2,9.54c0.4,0.05,0.75,0.16,1.07,0.3c-0.03,0.35-0.1,0.67-0.22,0.98
		c-0.51-0.03-1.39-0.03-2.11-0.03c-0.86,0-1.62,0.03-2.29,0.03c-0.05-0.32-0.05-0.66,0.02-0.98l1.46-0.29L8.68,56.9z M5.94,55.64
		h2.48l-0.59-3.02l0.14-1.46H7.92L5.94,55.64z"/>
	<path d="M14.53,53.78c-0.46-0.11-0.9-0.16-1.36-0.16c-0.06-0.22-0.08-0.51,0.02-0.8c0.53-0.3,1.2-0.5,2.03-0.5
		c0.85,0,1.25,0.4,1.25,1.09v0.21c0.94-0.88,1.94-1.36,2.93-1.36c1.07,0,1.52,0.74,1.52,1.58c0,1.06-0.4,3.01-0.8,4.93
		c0.46-0.08,0.96-0.21,1.38-0.38c0.24,0.18,0.38,0.42,0.43,0.75c-0.59,0.56-1.71,1.22-2.77,1.22c-0.77,0-1.06-0.46-1.06-0.99
		c0-0.16,0.02-0.34,0.05-0.51c0.35-1.73,0.77-3.76,0.77-4.21c0-0.48-0.05-0.85-0.29-0.99c-0.77,0.19-1.5,0.62-2.34,1.28
		c-0.19,1.57-0.4,3.2-0.56,4.82c-0.05,0.38-1.06,0.54-1.98,0.46l-0.18-0.16c0.35-1.82,0.61-3.47,0.82-5.17L14.53,53.78z"/>
	<path d="M25.92,55.84c0-3.33,2-6.69,5.6-6.69c2.58,0,3.89,2,3.89,4.61c0,3.33-2,6.69-5.6,6.69C27.22,60.45,25.92,58.45,25.92,55.84
		z M31.91,58.53c0.64-0.72,1.42-2.06,1.42-4.24c0-1.95-0.69-3.62-2.4-3.62c-0.58,0-1.06,0.16-1.52,0.4
		C28.79,51.76,28,53.14,28,55.32c0,1.95,0.67,3.62,2.4,3.62C30.98,58.93,31.46,58.79,31.91,58.53z"/>
	<path d="M42.08,56.9c-0.77-0.03-1.55-0.06-2.26-0.06h-1.01l-0.91,2.08l1.3,0.29c-0.03,0.35-0.1,0.67-0.22,0.98
		c-0.59-0.03-1.46-0.03-2.05-0.03c-0.7,0-1.28,0.03-1.81,0.03c-0.05-0.32-0.03-0.66,0.02-0.98c0.4-0.05,0.82-0.16,1.23-0.3
		l4.27-9.28c0.53-0.16,1.18-0.26,1.92-0.26l2,9.54c0.4,0.05,0.75,0.16,1.07,0.3c-0.03,0.35-0.1,0.67-0.22,0.98
		c-0.51-0.03-1.39-0.03-2.11-0.03c-0.86,0-1.62,0.03-2.29,0.03c-0.05-0.32-0.05-0.66,0.02-0.98l1.46-0.29L42.08,56.9z M39.35,55.64
		h2.48l-0.59-3.02l0.14-1.46h-0.05L39.35,55.64z"/>
	<path d="M51.49,50.9c-0.43,0.05-0.88,0.14-1.28,0.24c-0.18-0.34-0.22-0.72-0.18-1.17c1.41-0.4,2.82-0.62,4.51-0.62
		c2.3,0,3.68,0.99,3.68,2.66c0,2.34-2.26,4.31-4.47,4.31c-0.26,0-0.61,0-0.98-0.05l-0.16,1.31c-0.06,0.46-0.1,0.91-0.11,1.33
		c0.61,0.05,1.15,0.16,1.62,0.3c-0.03,0.35-0.1,0.67-0.24,0.98c-0.64-0.03-1.73-0.03-2.58-0.03c-0.88,0-1.62,0.03-2.27,0.03
		c-0.05-0.32-0.03-0.66,0.02-0.98c0.43-0.05,0.88-0.16,1.34-0.3c0.1-0.3,0.14-0.64,0.19-0.98L51.49,50.9z M53.49,50.69l-0.53,4.19
		c0.3,0.02,0.54,0.02,0.74,0.02c0.7,0,1.25-0.14,1.62-0.3c0.56-0.51,0.82-1.26,0.82-2.03c0-1.01-0.83-1.87-2.08-1.87H53.49z"/>
	<path d="M60.23,53.78c-0.46-0.11-0.9-0.16-1.36-0.16c-0.06-0.22-0.08-0.51,0.02-0.8c0.53-0.3,1.2-0.5,2.03-0.5
		c0.85,0,1.25,0.4,1.25,1.09c0,0.14,0,0.27-0.03,0.45l-0.06,0.38c0.69-1.12,1.49-2.03,2.23-2.03c0.77,0,1.22,0.86,1.22,1.41
		c0,0.37-0.62,0.98-1.28,1.25c-0.19-0.27-0.48-0.58-0.82-0.82c-0.58,0.51-1.07,1.07-1.54,1.78c-0.16,1.3-0.32,2.62-0.45,3.92
		c-0.05,0.38-1.06,0.54-1.98,0.46l-0.18-0.16c0.35-1.82,0.61-3.47,0.82-5.17L60.23,53.78z"/>
	<path d="M67.62,57.22c0.08,0.72,0.3,1.33,0.61,1.63c0.96-0.13,2.05-0.45,3.2-1.02c0.27,0.22,0.42,0.48,0.43,0.83
		c-1.5,1.04-3.06,1.76-4.48,1.76c-0.7,0-1.23-0.45-1.49-1.1c-0.21-0.58-0.27-1.34-0.27-2.08c0-2.91,1.75-4.98,4.23-4.98
		c1.39,0,2.08,1.1,2.08,2.74C71.92,55.64,69.83,56.5,67.62,57.22z M67.59,56.12c1.02-0.4,1.79-0.77,2.35-1.14
		c0-0.69-0.3-1.34-0.86-1.34c-0.19,0-0.37,0.03-0.58,0.11C68.07,54.18,67.67,55.09,67.59,56.12z"/>
	<path d="M72.64,59.27c0-0.38,0.22-0.83,0.54-1.14c0.62,0.53,1.26,0.83,1.95,0.83c0.24,0,0.54-0.06,0.75-0.18
		c0.1-0.16,0.16-0.38,0.16-0.64c0-0.5-0.88-1.14-1.42-1.5c-0.7-0.48-1.2-1.09-1.2-1.9c0-1.22,1.47-2.43,2.88-2.43
		c1.06,0,2.06,0.32,2.06,0.78c0,0.59-0.26,1.07-0.75,1.39c-0.48-0.46-1.06-0.77-1.54-0.77c-0.19,0-0.43,0.02-0.64,0.11
		c-0.1,0.14-0.14,0.29-0.14,0.51c0,0.45,0.67,0.94,1.3,1.34c0.86,0.56,1.38,1.2,1.38,2.1c0,1.07-1.3,2.59-3.22,2.59
		c-0.75,0-1.33-0.1-1.78-0.37C72.72,59.85,72.64,59.56,72.64,59.27z"/>
	<path d="M79.06,59.27c0-0.38,0.22-0.83,0.54-1.14c0.62,0.53,1.26,0.83,1.95,0.83c0.24,0,0.54-0.06,0.75-0.18
		c0.1-0.16,0.16-0.38,0.16-0.64c0-0.5-0.88-1.14-1.42-1.5c-0.7-0.48-1.2-1.09-1.2-1.9c0-1.22,1.47-2.43,2.88-2.43
		c1.06,0,2.06,0.32,2.06,0.78c0,0.59-0.26,1.07-0.75,1.39c-0.48-0.46-1.06-0.77-1.54-0.77c-0.19,0-0.43,0.02-0.64,0.11
		c-0.1,0.14-0.14,0.29-0.14,0.51c0,0.45,0.67,0.94,1.3,1.34c0.86,0.56,1.38,1.2,1.38,2.1c0,1.07-1.3,2.59-3.22,2.59
		c-0.75,0-1.33-0.1-1.78-0.37C79.14,59.85,79.06,59.56,79.06,59.27z"/>
	<path d="M90.4,52.48l0.22-1.41C90.9,49.46,92.27,48,94.19,48c0.99,0,1.7,0.26,2.08,0.75c0.19,0.26-0.64,1.17-1.31,1.34
		c-0.43-0.38-0.94-0.62-1.46-0.62c-0.19,0-0.42,0.03-0.59,0.1c-0.29,0.29-0.53,1.68-0.69,2.91c0.67,0.02,1.28,0.05,1.84,0.13
		c0,0.48-0.06,0.88-0.22,1.23h-1.78l-0.46,4.02c-0.22,1.9-0.45,3.89-0.64,5.91c-0.05,0.38-1.02,0.54-2,0.46l-0.16-0.16
		c0.34-1.82,0.58-3.47,0.8-5.17l0.5-3.97l0.13-1.09h-1.46c0-0.54,0.1-1.36,0.37-1.36H90.4z"/>
	<path d="M94.38,57.24c0-2.8,1.6-4.98,4.34-4.98c1.84,0,2.45,1.78,2.45,3.19c0,2.8-1.63,4.98-4.4,4.98
		C94.99,60.42,94.38,58.63,94.38,57.24z M98.42,58.85c0.38-0.46,0.78-1.54,0.78-2.71c0-1.67-0.38-2.53-1.2-2.53
		c-0.3,0-0.64,0.08-0.86,0.21c-0.4,0.45-0.8,1.49-0.8,2.72c0,1.63,0.35,2.51,1.25,2.51C97.86,59.06,98.19,58.97,98.42,58.85z"/>
	<path d="M103.52,53.78c-0.46-0.11-0.9-0.16-1.36-0.16c-0.06-0.22-0.08-0.51,0.02-0.8c0.53-0.3,1.2-0.5,2.03-0.5
		c0.85,0,1.25,0.4,1.25,1.09c0,0.14,0,0.27-0.03,0.45l-0.06,0.38c0.69-1.12,1.49-2.03,2.22-2.03c0.77,0,1.22,0.86,1.22,1.41
		c0,0.37-0.62,0.98-1.28,1.25c-0.19-0.27-0.48-0.58-0.82-0.82c-0.58,0.51-1.07,1.07-1.54,1.78c-0.16,1.3-0.32,2.62-0.45,3.92
		c-0.05,0.38-1.06,0.54-1.98,0.46l-0.18-0.16c0.35-1.82,0.61-3.47,0.82-5.17L103.52,53.78z"/>
	<path d="M113.49,57.94l0.88-7.06c-0.4,0.06-0.77,0.14-1.17,0.26c-0.22-0.34-0.29-0.72-0.21-1.17c1.55-0.43,3.07-0.62,4.51-0.62
		c2.16,0,3.25,0.86,3.25,2.26c0,1.02-0.7,1.95-1.73,2.51c1.25,0.38,1.92,1.3,1.92,2.4c0,1.81-1.6,3.7-4,3.7
		c-0.82,0-1.81-0.06-2.9-0.06c-0.75,0-1.41,0.03-2.11,0.03c-0.05-0.3-0.05-0.66,0.02-0.98c0.46-0.05,0.93-0.16,1.34-0.3
		C113.41,58.57,113.44,58.28,113.49,57.94z M115.82,55.22l-0.46,3.62h1.28c0.64,0,1.2-0.13,1.57-0.29c0.4-0.42,0.66-1.07,0.66-1.67
		c0-0.85-0.56-1.71-2.03-1.71C116.53,55.17,116.21,55.19,115.82,55.22z M117.28,53.89c0.85-0.29,1.39-1.09,1.39-1.76
		c0-1.01-0.78-1.47-1.68-1.47c-0.18,0-0.37,0-0.59,0.02l-0.42,3.3C116.45,53.92,116.88,53.91,117.28,53.89z"/>
	<path d="M123.47,53.78c-0.46-0.11-0.9-0.16-1.36-0.16c-0.06-0.22-0.1-0.51,0-0.8c0.53-0.3,1.22-0.5,2.06-0.5s1.23,0.38,1.23,1.06
		c0,0.18,0,0.32-0.03,0.48l-0.66,4.91c0.5-0.1,0.98-0.27,1.38-0.45c0.22,0.14,0.4,0.45,0.42,0.74c-0.59,0.62-1.86,1.3-2.79,1.3
		c-0.7,0-1.01-0.38-1.01-1.06c0-0.26,0.03-0.54,0.08-0.85C122.99,57.22,123.15,56.12,123.47,53.78z M123.34,50.19
		c0-0.67,0.61-1.5,1.33-1.5c0.56,0,1.15,0.43,1.15,1.06c0,0.7-0.59,1.44-1.33,1.49C123.97,51.23,123.34,50.77,123.34,50.19z"/>
	<path d="M128.69,49.44c-0.48-0.11-0.91-0.16-1.38-0.16c-0.06-0.21-0.06-0.5,0.02-0.8c0.53-0.29,1.22-0.48,2.05-0.48
		c0.86,0,1.26,0.4,1.26,1.09c0,0.14-0.02,0.27-0.03,0.45l-0.54,4.13c0.9-0.88,1.81-1.36,2.71-1.36c0.83,0,1.28,0.45,1.44,1.12
		c0.13,0.53,0.14,1.17,0.14,1.84c0,2.55-1.34,5.15-3.89,5.15c-1.2,0-2.24-0.32-3.15-0.91c0.08-0.3,0.13-0.54,0.18-0.85L128.69,49.44
		z M129.9,55l-0.48,3.68c0.43,0.24,0.88,0.38,1.33,0.38c0.3,0,0.59-0.06,0.78-0.14c0.46-0.5,0.86-1.63,0.86-3.17
		c0-1.01-0.1-1.74-0.29-2.03C131.39,53.88,130.62,54.37,129.9,55z"/>
	<path d="M137.7,58.77c0.48-0.1,0.94-0.27,1.36-0.45c0.22,0.14,0.4,0.45,0.42,0.74c-0.58,0.62-1.84,1.3-2.75,1.3
		c-0.7,0-1.02-0.38-1.02-1.06c0-0.26,0.03-0.56,0.08-0.86l1.18-9c-0.46-0.11-0.91-0.16-1.38-0.16c-0.06-0.21-0.06-0.5,0.03-0.8
		c0.53-0.29,1.2-0.48,2.03-0.48c0.86,0,1.26,0.4,1.26,1.09c0,0.14,0,0.27-0.03,0.45L137.7,58.77z"/>
	<path d="M142.29,57.22c0.08,0.72,0.3,1.33,0.61,1.63c0.96-0.13,2.05-0.45,3.2-1.02c0.27,0.22,0.42,0.48,0.43,0.83
		c-1.5,1.04-3.06,1.76-4.48,1.76c-0.7,0-1.23-0.45-1.49-1.1c-0.21-0.58-0.27-1.34-0.27-2.08c0-2.91,1.74-4.98,4.23-4.98
		c1.39,0,2.08,1.1,2.08,2.74C146.59,55.64,144.5,56.5,142.29,57.22z M142.26,56.12c1.02-0.4,1.79-0.77,2.35-1.14
		c0-0.69-0.3-1.34-0.86-1.34c-0.19,0-0.37,0.03-0.58,0.11C142.74,54.18,142.34,55.09,142.26,56.12z"/>
	<path d="M158.91,54.93l0.02,0.06h0.58c0.74,0,1.47,0.43,1.47,1.31c0,2.27-3.06,4.1-6.32,4.1c-2.46,0-3.78-1.22-3.78-2.98
		c0-1.28,0.86-2.54,2.26-3.17c-0.54-0.4-0.82-1.06-0.82-1.76c0-1.65,2.07-3.3,4.08-3.3c0.86,0,1.68,0.13,2.5,0.43
		c-0.14,1.02-0.37,1.98-0.74,2.83c-0.4,0.06-0.8,0.06-1.17-0.11c0.05-0.48,0.05-1.04-0.02-1.52c-0.29-0.08-0.69-0.11-1.04-0.11
		c-0.38,0-0.77,0.06-1.2,0.22c-0.29,0.32-0.48,0.75-0.48,1.28c0,0.67,0.29,1.34,0.96,1.34c0.16,0,0.38-0.02,0.58-0.05l0.16,0.16
		c0.14,0.62-0.19,1.34-0.67,1.34c-0.61,0-1.2,0.1-1.74,0.37c-0.38,0.42-0.58,0.88-0.58,1.49c0,1.17,0.88,2,2.59,2
		c1.33,0,2.29-0.3,3.28-1.02c0.18-0.32,0.22-0.62,0.22-0.9c0-0.58-0.35-1.04-1.07-1.04c-0.32,0-0.74,0.1-1.18,0.34
		c-0.3-0.21-0.5-0.51-0.54-0.9c1.97-1.04,3.57-2.21,3.99-4.03l0.18-0.16c0.98-0.08,1.79,0.3,1.79,0.8c0,0.86-1.09,1.89-2.48,2.56
		L158.91,54.93z"/>
	<path d="M179.22,58.85c0.37-1.73,0.78-3.76,0.78-4.21c0-0.48-0.05-0.85-0.29-0.99c-0.78,0.19-1.52,0.62-2.34,1.28
		c-0.21,1.57-0.42,3.19-0.58,4.82c-0.05,0.38-1.06,0.54-2,0.46l-0.18-0.16c0.35-1.82,0.59-3.47,0.82-5.17l0.56-4.1h-3.76l-0.87,6.79
		c-0.06,0.46-0.1,0.91-0.11,1.33c0.61,0.05,1.15,0.16,1.62,0.3c-0.03,0.35-0.1,0.67-0.24,0.98c-0.64-0.03-1.71-0.03-2.61-0.03
		c-1.04,0-1.91,0.03-2.66,0.03c-0.06-0.32-0.06-0.66-0.02-0.98c0.58-0.05,1.17-0.16,1.78-0.3c0.1-0.3,0.14-0.64,0.19-0.98l0.91-7.14
		h-2c-0.19,0.66-0.37,1.38-0.5,2.06c-0.37,0.1-0.75,0.11-1.2,0c-0.03-0.98,0.03-1.94,0.26-3.26l0.16-0.16
		c0.93,0.03,2.48,0.03,3.54,0.03h1.81h2.38c0.53-0.29,1.2-0.48,2.05-0.48c0.86,0,1.25,0.4,1.25,1.09c0,0.14,0,0.27-0.03,0.45
		l-0.4,3.09c0.94-0.86,1.95-1.34,2.93-1.34c1.06,0,1.5,0.74,1.5,1.58c0,1.06-0.38,3.01-0.78,4.93c0.46-0.08,0.96-0.21,1.38-0.38
		c0.24,0.18,0.37,0.42,0.42,0.75c-0.58,0.56-1.71,1.22-2.75,1.22c-0.77,0-1.07-0.46-1.07-0.99
		C179.17,59.21,179.19,59.03,179.22,58.85z"/>
	<path d="M185.79,57.22c0.08,0.72,0.3,1.33,0.61,1.63c0.96-0.13,2.05-0.45,3.2-1.02c0.27,0.22,0.42,0.48,0.43,0.83
		c-1.5,1.04-3.06,1.76-4.48,1.76c-0.7,0-1.23-0.45-1.49-1.1c-0.21-0.58-0.27-1.34-0.27-2.08c0-2.91,1.75-4.98,4.23-4.98
		c1.39,0,2.08,1.1,2.08,2.74C190.1,55.64,188,56.5,185.79,57.22z M185.76,56.12c1.02-0.4,1.79-0.77,2.35-1.14
		c0-0.69-0.3-1.34-0.86-1.34c-0.19,0-0.37,0.03-0.58,0.11C186.24,54.18,185.84,55.09,185.76,56.12z"/>
	<path d="M191.15,57.24c0-2.8,1.6-4.98,4.34-4.98c1.84,0,2.45,1.78,2.45,3.19c0,2.8-1.63,4.98-4.4,4.98
		C191.76,60.42,191.15,58.63,191.15,57.24z M195.18,58.85c0.38-0.46,0.78-1.54,0.78-2.71c0-1.67-0.38-2.53-1.2-2.53
		c-0.3,0-0.64,0.08-0.86,0.21c-0.4,0.45-0.8,1.49-0.8,2.72c0,1.63,0.35,2.51,1.25,2.51C194.62,59.06,194.96,58.97,195.18,58.85z"/>
	<path d="M201.23,58.77c0.48-0.1,0.94-0.27,1.36-0.45c0.22,0.14,0.4,0.45,0.42,0.74c-0.58,0.62-1.84,1.3-2.75,1.3
		c-0.7,0-1.02-0.38-1.02-1.06c0-0.26,0.03-0.56,0.08-0.86l1.18-9c-0.46-0.11-0.91-0.16-1.38-0.16c-0.06-0.21-0.06-0.5,0.03-0.8
		c0.53-0.29,1.2-0.48,2.03-0.48c0.86,0,1.26,0.4,1.26,1.09c0,0.14,0,0.27-0.03,0.45L201.23,58.77z"/>
	<path d="M203.82,57.24c0-2.8,1.6-4.98,4.34-4.98c1.84,0,2.45,1.78,2.45,3.19c0,2.8-1.63,4.98-4.4,4.98
		C204.43,60.42,203.82,58.63,203.82,57.24z M207.86,58.85c0.38-0.46,0.78-1.54,0.78-2.71c0-1.67-0.38-2.53-1.2-2.53
		c-0.3,0-0.64,0.08-0.86,0.21c-0.4,0.45-0.8,1.49-0.8,2.72c0,1.63,0.35,2.51,1.25,2.51C207.3,59.06,207.63,58.97,207.86,58.85z"/>
	<path d="M218.71,53.04c-0.06,0.29-0.11,0.51-0.16,0.8l-0.51,4.02c-0.14,1.18-0.29,2.21-0.61,3.63c-0.34,1.49-1.92,2.93-3.91,2.93
		c-1.1,0-1.95-0.27-2.34-0.67c-0.11-0.1-0.14-0.3-0.14-0.51c0-0.5,0.42-1.14,0.75-1.41h0.24c0.42,0.7,1.09,1.14,1.94,1.14
		c0.42,0,0.96-0.13,1.23-0.32c0.34-1.1,0.54-2.23,0.72-3.47c-0.85,0.74-1.71,1.2-2.58,1.2s-1.3-0.46-1.47-1.14
		c-0.14-0.54-0.16-1.2-0.16-1.79c0-2.61,1.46-5.19,3.83-5.19c0.98,0,2.18,0.24,3.2,0.74L218.71,53.04z M216.08,57.86l0.51-3.97
		c-0.42-0.18-0.85-0.27-1.23-0.27c-0.3,0-0.58,0.05-0.82,0.13c-0.48,0.5-0.88,1.63-0.88,3.17c0,0.99,0.1,1.74,0.3,2.03
		C214.64,58.82,215.38,58.41,216.08,57.86z"/>
	<path d="M223.44,60.5c-1.22,1.38-1.92,2.58-2.51,3.87l-0.19,0.13c-0.77-0.02-1.54-0.51-1.54-0.86c0-0.43,1.36-2.05,2.63-3.11v-1.34
		c0-2.02-0.19-3.67-0.91-5.27c-0.46,0.03-0.83,0.1-1.22,0.19c-0.21-0.13-0.34-0.5-0.34-0.83c0.53-0.56,1.57-0.98,2.18-0.98
		c0.64,0,1.07,0.38,1.28,0.88c0.34,0.77,0.54,2.34,0.54,4.07c0,0.54,0,1.09-0.05,1.54h0.05c1.23-1.66,1.71-3.33,1.71-5.39
		c0-0.29-0.03-0.61-0.08-0.91l0.16-0.16c0.75,0,1.49,0.11,1.7,0.53c0.14,0.29,0.18,0.64,0.18,0.96
		C227.02,55.76,225.63,58.02,223.44,60.5z"/>
</g>
<g>
</g>
<g>
</g>
<g>
</g>
<g>
</g>
<g>
</g>
<g>
</g>
</svg>
