<?xml version="1.0" encoding="utf-8"?>
<!-- Generator: Adobe Illustrator 16.0.0, SVG Export Plug-In . SVG Version: 6.00 Build 0)  -->
<!DOCTYPE svg PUBLIC "-//W3C//DTD SVG 1.1//EN" "http://www.w3.org/Graphics/SVG/1.1/DTD/svg11.dtd">
<svg version="1.1" id="Layer_1" xmlns="http://www.w3.org/2000/svg" xmlns:xlink="http://www.w3.org/1999/xlink" x="0px" y="0px"
	 width="232px" height="132px" viewBox="0 0 232 132" enable-background="new 0 0 232 132" xml:space="preserve">
<rect x="-7.8" y="-2.59" fill="#E8DDCB" width="244.25" height="139.102"/>
<g>
	<path fill="#023649" d="M10.248,99.08h12.69c0.756-2.376,1.404-4.752,1.944-7.236c0.972-0.216,1.89-0.107,2.862,0.217
		c0,3.402-0.162,6.75-0.594,10.152l-0.432,0.432c-3.348-0.108-8.91-0.108-12.69-0.108h-6.21c-2.376,0-4.536,0.108-6.858,0.108
		c-0.324-0.864-0.432-1.729-0.432-2.592c1.566-0.162,3.132-0.541,4.698-1.026c0.216-1.026,0.27-2.16,0.27-3.294V77.426
		c0-3.186-0.108-5.454-0.27-7.452c-1.566-0.485-3.132-0.864-4.698-1.026c0-0.863,0.108-1.728,0.432-2.591
		c2.538,0,4.86,0.108,7.452,0.108c1.89,0,5.508,0,7.128-0.108c0.324,0.81,0.432,1.673,0.378,2.591
		c-1.62,0.486-3.456,0.865-5.454,1.026c-0.162,1.998-0.216,4.267-0.216,7.452V99.08z"/>
	<path fill="#023649" d="M42.551,76.454c7.452,0,9.612,4.968,9.612,9.666c0,1.242-0.108,2.646-0.27,3.349L51.461,89.9
		c-2.214-0.055-5.724-0.108-9.774-0.108h-6.264c0.27,4.374,2.052,9.667,7.344,9.667c2.376,0,5.238-0.648,8.586-1.945
		c0.648,0.486,0.864,1.135,0.918,1.945c-2.484,1.674-6.912,3.887-10.422,3.887c-7.722,0-10.962-5.724-10.962-13.067
		C30.887,83.582,35.693,76.454,42.551,76.454z M35.531,86.984h5.292c2.862,0,5.238-0.108,6.588-0.217
		c0-3.455-0.81-6.804-5.616-6.804c-1.134,0-3.024,0.378-3.672,1.026C36.881,82.34,35.909,84.445,35.531,86.984z"/>
	<path fill="#023649" d="M63.956,76.994c0.162,0.648,0.432,1.89,0.648,3.078c3.078-2.269,5.994-3.618,9.071-3.618
		c4.753,0,7.452,2.646,7.452,8.64v10.099c0,1.458,0.055,2.754,0.162,4.05c1.404,0.162,3.078,0.54,4.051,0.973
		c0,0.81-0.108,1.943-0.378,2.43c-1.404-0.055-4.753-0.108-5.994-0.108c-2.215,0-4.482,0.108-6.589,0.108
		c-0.162-0.432-0.323-1.566-0.323-2.43c1.458-0.162,3.239-0.541,4.319-0.918c0.162-1.188,0.216-1.945,0.216-3.024V87.2
		c0-4.05-0.647-7.021-4.914-7.021c-2.214,0-4.481,0.864-6.804,2.484v12.528c0,1.458,0.054,2.754,0.162,4.05
		c1.458,0.162,3.078,0.54,4.05,0.973c0,0.81-0.107,1.943-0.324,2.43c-1.458-0.055-4.752-0.108-6.048-0.108
		c-2.214,0-4.482,0.108-6.534,0.108c-0.216-0.432-0.378-1.566-0.378-2.43c1.512-0.162,3.24-0.541,4.32-0.918
		c0.162-1.188,0.216-1.945,0.216-3.024V81.529c-1.404-0.432-2.862-0.701-4.266-0.863c-0.216-0.702-0.324-1.458-0.216-2.105
		c1.998-0.811,4.915-1.675,7.668-1.945L63.956,76.994z"/>
	<path fill="#023649" d="M89.627,80.504c-1.026-0.216-2.646-0.54-4.05-0.702c-0.217-0.702-0.217-1.458-0.108-2.159
		c1.242-0.324,2.646-0.541,4.158-0.648l1.782-7.344c0.863-0.055,1.728-0.055,2.754,0.323v7.128l8.424,0.108
		c0,1.188-0.054,2.214-0.216,3.294h-8.208v13.068c0,3.941,0.81,5.939,2.538,5.939c1.89,0,3.401-0.432,5.346-1.133
		c0.594,0.594,0.918,1.403,0.918,2.43c-2.16,1.296-5.292,2.537-8.37,2.537c-3.672,0-4.968-2.754-4.968-7.722V80.504z"/>
	<path fill="#023649" d="M116.281,76.454c7.452,0,9.612,4.968,9.612,9.666c0,1.242-0.108,2.646-0.271,3.349l-0.432,0.432
		c-2.214-0.055-5.724-0.108-9.774-0.108h-6.264c0.27,4.374,2.052,9.667,7.344,9.667c2.376,0,5.238-0.648,8.586-1.945
		c0.648,0.486,0.864,1.135,0.918,1.945c-2.483,1.674-6.912,3.887-10.422,3.887c-7.722,0-10.962-5.724-10.962-13.067
		C104.617,83.582,109.423,76.454,116.281,76.454z M109.261,86.984h5.292c2.862,0,5.238-0.108,6.589-0.217
		c0-3.455-0.811-6.804-5.616-6.804c-1.134,0-3.024,0.378-3.672,1.026C110.611,82.34,109.639,84.445,109.261,86.984z"/>
	<path fill="#D95B43" d="M134.484,96.219c2.106,0,3.727,1.457,3.727,3.455c0,2.053-1.62,3.672-3.727,3.672
		c-2.105,0-3.726-1.619-3.726-3.672C130.759,97.676,132.379,96.219,134.484,96.219z"/>
	<path fill="#023649" d="M150.506,76.994c0.162,0.648,0.432,1.89,0.648,3.078c3.078-2.269,5.994-3.618,9.071-3.618
		c4.753,0,7.452,2.646,7.452,8.64v10.099c0,1.458,0.055,2.754,0.162,4.05c1.404,0.162,3.078,0.54,4.051,0.973
		c0,0.81-0.108,1.943-0.378,2.43c-1.404-0.055-4.753-0.108-5.994-0.108c-2.215,0-4.482,0.108-6.589,0.108
		c-0.162-0.432-0.323-1.566-0.323-2.43c1.458-0.162,3.239-0.541,4.319-0.918c0.162-1.188,0.217-1.945,0.217-3.024V87.2
		c0-4.05-0.648-7.021-4.915-7.021c-2.214,0-4.481,0.864-6.804,2.484v12.528c0,1.458,0.054,2.754,0.162,4.05
		c1.458,0.162,3.078,0.54,4.05,0.973c0,0.81-0.107,1.943-0.324,2.43c-1.458-0.055-4.752-0.108-6.048-0.108
		c-2.214,0-4.481,0.108-6.534,0.108c-0.216-0.432-0.378-1.566-0.378-2.43c1.513-0.162,3.24-0.541,4.32-0.918
		c0.162-1.188,0.216-1.945,0.216-3.024V81.529c-1.404-0.432-2.862-0.701-4.266-0.863c-0.216-0.702-0.324-1.458-0.216-2.105
		c1.997-0.811,4.914-1.675,7.668-1.945L150.506,76.994z"/>
	<path fill="#023649" d="M185.308,76.454c7.452,0,9.612,4.968,9.612,9.666c0,1.242-0.108,2.646-0.271,3.349l-0.432,0.432
		c-2.214-0.055-5.724-0.108-9.774-0.108h-6.264c0.27,4.374,2.052,9.667,7.344,9.667c2.376,0,5.238-0.648,8.586-1.945
		c0.648,0.486,0.864,1.135,0.918,1.945c-2.483,1.674-6.912,3.887-10.422,3.887c-7.722,0-10.962-5.724-10.962-13.067
		C173.644,83.582,178.449,76.454,185.308,76.454z M178.287,86.984h5.293c2.861,0,5.237-0.108,6.588-0.217
		c0-3.455-0.811-6.804-5.616-6.804c-1.134,0-3.024,0.378-3.672,1.026C179.638,82.34,178.665,84.445,178.287,86.984z"/>
	<path fill="#023649" d="M201.691,80.504c-1.026-0.216-2.646-0.54-4.05-0.702c-0.217-0.702-0.217-1.458-0.108-2.159
		c1.242-0.324,2.646-0.541,4.158-0.648l1.782-7.344c0.863-0.055,1.728-0.055,2.754,0.323v7.128l8.424,0.108
		c0,1.188-0.054,2.214-0.216,3.294h-8.208v13.068c0,3.941,0.81,5.939,2.538,5.939c1.89,0,3.401-0.432,5.346-1.133
		c0.594,0.594,0.918,1.403,0.918,2.43c-2.16,1.296-5.292,2.537-8.37,2.537c-3.672,0-4.968-2.754-4.968-7.722V80.504z"/>
</g>
<g>
	<path fill="#036564" d="M7.326,123.918c-0.739-0.031-1.494-0.062-2.171-0.062h-0.97l-0.877,2.001l1.247,0.277
		c-0.031,0.339-0.092,0.646-0.215,0.939c-0.57-0.031-1.401-0.031-1.971-0.031c-0.678,0-1.232,0.031-1.74,0.031
		c-0.046-0.309-0.031-0.631,0.015-0.939c0.385-0.046,0.785-0.154,1.186-0.293l4.111-8.93c0.508-0.153,1.139-0.246,1.848-0.246
		l1.924,9.176c0.385,0.047,0.724,0.154,1.032,0.293c-0.031,0.339-0.093,0.646-0.216,0.939c-0.493-0.031-1.339-0.031-2.032-0.031
		c-0.832,0-1.555,0.031-2.202,0.031c-0.046-0.309-0.046-0.631,0.016-0.939l1.401-0.277L7.326,123.918z M4.693,122.701h2.386
		l-0.57-2.91l0.139-1.4H6.602L4.693,122.701z"/>
	<path fill="#036564" d="M12.724,120.916c-0.446-0.108-0.862-0.154-1.309-0.154c-0.062-0.216-0.077-0.492,0.016-0.77
		c0.508-0.293,1.155-0.478,1.955-0.478c0.816,0,1.201,0.385,1.201,1.047v0.2c0.908-0.847,1.863-1.309,2.817-1.309
		c1.032,0,1.462,0.708,1.462,1.523c0,1.017-0.385,2.895-0.77,4.742c0.446-0.076,0.924-0.199,1.324-0.369
		c0.231,0.17,0.369,0.4,0.416,0.724c-0.57,0.539-1.647,1.17-2.664,1.17c-0.739,0-1.016-0.446-1.016-0.954
		c0-0.154,0.015-0.324,0.046-0.493c0.339-1.663,0.739-3.618,0.739-4.049c0-0.462-0.046-0.815-0.277-0.954
		c-0.739,0.184-1.447,0.6-2.248,1.23c-0.185,1.51-0.385,3.08-0.539,4.635c-0.046,0.369-1.016,0.523-1.909,0.447l-0.169-0.154
		c0.338-1.756,0.585-3.342,0.785-4.973L12.724,120.916z"/>
	<path fill="#036564" d="M23.504,122.902c0-3.203,1.924-6.437,5.389-6.437c2.479,0,3.741,1.925,3.741,4.435
		c0,3.202-1.924,6.436-5.389,6.436C24.751,127.336,23.504,125.411,23.504,122.902z M29.263,125.488
		c0.616-0.693,1.37-1.986,1.37-4.08c0-1.879-0.662-3.479-2.31-3.479c-0.554,0-1.016,0.153-1.462,0.385
		c-0.601,0.662-1.355,1.986-1.355,4.08c0,1.878,0.646,3.479,2.31,3.479C28.37,125.873,28.832,125.734,29.263,125.488z"/>
	<path fill="#036564" d="M38.848,123.918c-0.739-0.031-1.494-0.062-2.171-0.062h-0.97l-0.877,2.001l1.247,0.277
		c-0.031,0.339-0.092,0.646-0.215,0.939c-0.57-0.031-1.401-0.031-1.971-0.031c-0.678,0-1.232,0.031-1.74,0.031
		c-0.046-0.309-0.031-0.631,0.015-0.939c0.385-0.046,0.785-0.154,1.186-0.293l4.111-8.93c0.508-0.153,1.139-0.246,1.848-0.246
		l1.924,9.176c0.385,0.047,0.724,0.154,1.032,0.293c-0.031,0.339-0.093,0.646-0.216,0.939c-0.493-0.031-1.339-0.031-2.032-0.031
		c-0.832,0-1.555,0.031-2.202,0.031c-0.046-0.309-0.046-0.631,0.016-0.939l1.401-0.277L38.848,123.918z M36.215,122.701h2.386
		l-0.569-2.91l0.138-1.4h-0.046L36.215,122.701z"/>
	<path fill="#036564" d="M47.873,118.145c-0.416,0.046-0.847,0.139-1.232,0.23c-0.169-0.323-0.215-0.693-0.169-1.123
		c1.355-0.386,2.71-0.602,4.342-0.602c2.217,0,3.541,0.955,3.541,2.557c0,2.248-2.171,4.141-4.295,4.141
		c-0.247,0-0.585,0-0.939-0.046l-0.154,1.263c-0.062,0.446-0.092,0.877-0.107,1.277c0.585,0.047,1.108,0.154,1.555,0.293
		c-0.031,0.339-0.092,0.646-0.231,0.939c-0.616-0.031-1.663-0.031-2.479-0.031c-0.847,0-1.555,0.031-2.187,0.031
		c-0.046-0.309-0.031-0.631,0.016-0.939c0.416-0.046,0.847-0.154,1.293-0.293c0.093-0.292,0.139-0.615,0.185-0.938L47.873,118.145z
		 M49.797,117.944l-0.508,4.034c0.292,0.015,0.523,0.015,0.708,0.015c0.677,0,1.201-0.139,1.555-0.292
		c0.539-0.493,0.786-1.217,0.786-1.955c0-0.971-0.801-1.802-2.002-1.802H49.797z"/>
	<path fill="#036564" d="M56.399,120.916c-0.446-0.108-0.862-0.154-1.309-0.154c-0.062-0.216-0.077-0.492,0.016-0.77
		c0.508-0.293,1.155-0.478,1.955-0.478c0.816,0,1.201,0.385,1.201,1.047c0,0.139,0,0.262-0.031,0.431l-0.062,0.369
		c0.662-1.077,1.432-1.955,2.14-1.955c0.739,0,1.17,0.832,1.17,1.355c0,0.354-0.601,0.939-1.232,1.201
		c-0.185-0.262-0.462-0.555-0.785-0.785c-0.554,0.492-1.031,1.031-1.478,1.709c-0.154,1.246-0.308,2.524-0.431,3.771
		c-0.046,0.369-1.016,0.523-1.909,0.447l-0.169-0.154c0.338-1.756,0.585-3.342,0.785-4.973L56.399,120.916z"/>
	<path fill="#036564" d="M63.706,124.226c0.077,0.692,0.292,1.278,0.585,1.57c0.924-0.123,1.971-0.431,3.079-0.985
		c0.262,0.216,0.4,0.462,0.416,0.801c-1.447,1.001-2.941,1.693-4.312,1.693c-0.677,0-1.185-0.431-1.432-1.062
		c-0.2-0.554-0.262-1.293-0.262-2.001c0-2.802,1.678-4.788,4.064-4.788c1.34,0,2.002,1.062,2.002,2.633
		C67.848,122.701,65.831,123.533,63.706,124.226z M63.675,123.164c0.985-0.386,1.725-0.74,2.264-1.094
		c0-0.662-0.293-1.293-0.832-1.293c-0.185,0-0.354,0.03-0.554,0.107C64.137,121.301,63.752,122.178,63.675,123.164z"/>
	<path fill="#036564" d="M68.552,126.196c0-0.369,0.216-0.8,0.523-1.093c0.601,0.508,1.217,0.801,1.879,0.801
		c0.23,0,0.523-0.062,0.724-0.17c0.092-0.154,0.154-0.369,0.154-0.615c0-0.478-0.848-1.094-1.371-1.447
		c-0.677-0.463-1.154-1.047-1.154-1.832c0-1.17,1.416-2.341,2.771-2.341c1.016,0,1.986,0.308,1.986,0.755
		c0,0.569-0.247,1.031-0.724,1.339c-0.462-0.446-1.017-0.739-1.479-0.739c-0.185,0-0.416,0.016-0.616,0.108
		c-0.092,0.138-0.138,0.276-0.138,0.493c0,0.431,0.646,0.908,1.247,1.293c0.831,0.539,1.323,1.154,1.323,2.017
		c0,1.031-1.247,2.494-3.095,2.494c-0.723,0-1.277-0.093-1.709-0.354C68.629,126.75,68.552,126.474,68.552,126.196z"/>
	<path fill="#036564" d="M74.506,126.196c0-0.369,0.216-0.8,0.523-1.093c0.601,0.508,1.217,0.801,1.879,0.801
		c0.23,0,0.523-0.062,0.724-0.17c0.092-0.154,0.153-0.369,0.153-0.615c0-0.478-0.847-1.094-1.37-1.447
		c-0.677-0.463-1.154-1.047-1.154-1.832c0-1.17,1.416-2.341,2.771-2.341c1.016,0,1.986,0.308,1.986,0.755
		c0,0.569-0.247,1.031-0.724,1.339c-0.462-0.446-1.017-0.739-1.479-0.739c-0.185,0-0.416,0.016-0.616,0.108
		c-0.092,0.138-0.138,0.276-0.138,0.493c0,0.431,0.646,0.908,1.247,1.293c0.831,0.539,1.323,1.154,1.323,2.017
		c0,1.031-1.247,2.494-3.095,2.494c-0.724,0-1.277-0.093-1.708-0.354C74.583,126.75,74.506,126.474,74.506,126.196z"/>
	<path fill="#036564" d="M85.24,119.668l0.215-1.354c0.262-1.555,1.586-2.956,3.434-2.956c0.955,0,1.632,0.246,2.002,0.724
		c0.185,0.247-0.616,1.124-1.263,1.294c-0.416-0.37-0.908-0.602-1.401-0.602c-0.185,0-0.4,0.031-0.569,0.093
		c-0.277,0.277-0.508,1.616-0.662,2.802c0.646,0.016,1.231,0.047,1.771,0.123c0,0.463-0.062,0.848-0.216,1.186H86.84l-0.446,3.865
		c-0.216,1.832-0.431,3.741-0.616,5.681c-0.046,0.37-0.985,0.523-1.924,0.446l-0.154-0.153c0.323-1.755,0.555-3.341,0.77-4.974
		l0.478-3.818l0.123-1.047h-1.4c0-0.523,0.092-1.309,0.354-1.309H85.24z"/>
	<path fill="#036564" d="M88.944,124.241c0-2.694,1.539-4.788,4.172-4.788c1.771,0,2.355,1.709,2.355,3.063
		c0,2.694-1.57,4.788-4.233,4.788C89.529,127.305,88.944,125.58,88.944,124.241z M92.823,125.796
		c0.37-0.446,0.755-1.478,0.755-2.602c0-1.602-0.369-2.433-1.154-2.433c-0.293,0-0.616,0.076-0.832,0.2
		c-0.385,0.431-0.77,1.432-0.77,2.617c0,1.57,0.339,2.417,1.201,2.417C92.285,125.996,92.608,125.904,92.823,125.796z"/>
	<path fill="#036564" d="M97.551,120.916c-0.446-0.108-0.862-0.154-1.309-0.154c-0.062-0.216-0.077-0.492,0.016-0.77
		c0.508-0.293,1.154-0.478,1.955-0.478c0.816,0,1.201,0.385,1.201,1.047c0,0.139,0,0.262-0.031,0.431l-0.062,0.369
		c0.662-1.077,1.432-1.955,2.141-1.955c0.738,0,1.17,0.832,1.17,1.355c0,0.354-0.601,0.939-1.231,1.201
		c-0.186-0.262-0.462-0.555-0.785-0.785c-0.555,0.492-1.032,1.031-1.479,1.709c-0.154,1.246-0.308,2.524-0.431,3.771
		c-0.047,0.369-1.017,0.523-1.909,0.447l-0.17-0.154c0.339-1.756,0.585-3.342,0.785-4.973L97.551,120.916z"/>
	<path fill="#036564" d="M106.96,124.918l0.847-6.789c-0.385,0.062-0.738,0.139-1.123,0.246c-0.216-0.323-0.277-0.693-0.2-1.123
		c1.493-0.416,2.956-0.602,4.342-0.602c2.078,0,3.125,0.832,3.125,2.172c0,0.984-0.678,1.878-1.663,2.416
		c1.201,0.37,1.848,1.248,1.848,2.311c0,1.739-1.539,3.557-3.849,3.557c-0.785,0-1.74-0.062-2.787-0.062
		c-0.724,0-1.354,0.031-2.032,0.031c-0.046-0.293-0.046-0.631,0.016-0.939c0.446-0.046,0.893-0.154,1.293-0.293
		C106.884,125.52,106.915,125.242,106.96,124.918z M109.208,122.301l-0.446,3.48h1.231c0.616,0,1.155-0.123,1.509-0.277
		c0.385-0.4,0.632-1.031,0.632-1.602c0-0.816-0.539-1.647-1.956-1.647C109.886,122.255,109.579,122.271,109.208,122.301z
		 M110.61,121.023c0.815-0.277,1.339-1.047,1.339-1.693c0-0.971-0.754-1.417-1.616-1.417c-0.169,0-0.354,0-0.569,0.016l-0.4,3.171
		C109.809,121.055,110.225,121.039,110.61,121.023z"/>
	<path fill="#036564" d="M116.284,120.916c-0.446-0.108-0.862-0.154-1.309-0.154c-0.062-0.216-0.092-0.492,0-0.77
		c0.508-0.293,1.17-0.478,1.986-0.478c0.816,0,1.185,0.369,1.185,1.017c0,0.169,0,0.307-0.031,0.461l-0.631,4.727
		c0.479-0.092,0.939-0.262,1.324-0.431c0.215,0.139,0.385,0.431,0.4,0.708c-0.57,0.601-1.785,1.247-2.679,1.247
		c-0.677,0-0.97-0.369-0.97-1.017c0-0.246,0.031-0.523,0.077-0.815C115.822,124.226,115.976,123.164,116.284,120.916z
		 M116.161,117.467c0-0.646,0.585-1.447,1.279-1.447c0.537,0,1.107,0.416,1.107,1.016c0,0.678-0.57,1.387-1.277,1.433
		C116.761,118.468,116.161,118.021,116.161,117.467z"/>
	<path fill="#036564" d="M121.32,116.743c-0.461-0.108-0.877-0.153-1.324-0.153c-0.061-0.201-0.061-0.479,0.016-0.771
		c0.508-0.276,1.17-0.462,1.971-0.462c0.832,0,1.217,0.385,1.217,1.047c0,0.139-0.016,0.262-0.031,0.432l-0.523,3.972
		c0.863-0.847,1.74-1.309,2.602-1.309c0.801,0,1.232,0.431,1.387,1.077c0.123,0.509,0.139,1.125,0.139,1.771
		c0,2.447-1.293,4.957-3.742,4.957c-1.154,0-2.154-0.308-3.033-0.877c0.078-0.293,0.123-0.523,0.17-0.816L121.32,116.743z
		 M122.49,122.086l-0.461,3.541c0.416,0.23,0.846,0.369,1.277,0.369c0.293,0,0.57-0.062,0.754-0.139
		c0.447-0.477,0.832-1.57,0.832-3.049c0-0.969-0.092-1.678-0.277-1.955C123.922,121.008,123.184,121.485,122.49,122.086z"/>
	<path fill="#036564" d="M129.816,125.719c0.463-0.092,0.91-0.262,1.309-0.431c0.217,0.139,0.387,0.431,0.4,0.708
		c-0.553,0.601-1.77,1.247-2.646,1.247c-0.678,0-0.986-0.369-0.986-1.017c0-0.246,0.031-0.538,0.078-0.83l1.139-8.653
		c-0.447-0.108-0.877-0.153-1.324-0.153c-0.062-0.201-0.062-0.479,0.031-0.771c0.508-0.276,1.154-0.462,1.955-0.462
		c0.83,0,1.217,0.385,1.217,1.047c0,0.139,0,0.262-0.031,0.432L129.816,125.719z"/>
	<path fill="#036564" d="M134.207,124.226c0.078,0.692,0.293,1.278,0.586,1.57c0.924-0.123,1.971-0.431,3.078-0.985
		c0.262,0.216,0.4,0.462,0.416,0.801c-1.447,1.001-2.939,1.693-4.311,1.693c-0.678,0-1.186-0.431-1.432-1.062
		c-0.199-0.554-0.262-1.293-0.262-2.001c0-2.802,1.678-4.788,4.064-4.788c1.34,0,2.002,1.062,2.002,2.633
		C138.35,122.701,136.332,123.533,134.207,124.226z M134.178,123.164c0.984-0.386,1.723-0.74,2.262-1.094
		c0-0.662-0.291-1.293-0.83-1.293c-0.186,0-0.355,0.03-0.555,0.107C134.639,121.301,134.254,122.178,134.178,123.164z"/>
	<path fill="#036564" d="M150.021,122.023l0.016,0.062h0.555c0.707,0,1.416,0.416,1.416,1.262c0,2.187-2.941,3.941-6.082,3.941
		c-2.371,0-3.633-1.17-3.633-2.863c0-1.231,0.832-2.447,2.172-3.049c-0.525-0.385-0.787-1.016-0.787-1.693
		c0-1.586,1.986-3.172,3.928-3.172c0.83,0,1.615,0.123,2.4,0.416c-0.139,0.985-0.354,1.909-0.707,2.725
		c-0.385,0.062-0.77,0.062-1.125-0.107c0.047-0.461,0.047-1-0.016-1.463c-0.277-0.076-0.662-0.107-1-0.107
		c-0.369,0-0.738,0.062-1.154,0.216c-0.277,0.308-0.463,0.724-0.463,1.231c0,0.646,0.277,1.293,0.924,1.293
		c0.154,0,0.369-0.015,0.555-0.045l0.154,0.153c0.139,0.601-0.186,1.293-0.646,1.293c-0.586,0-1.154,0.093-1.678,0.354
		c-0.371,0.4-0.555,0.847-0.555,1.432c0,1.124,0.846,1.925,2.494,1.925c1.277,0,2.201-0.293,3.156-0.985
		c0.168-0.309,0.215-0.601,0.215-0.862c0-0.554-0.338-1.001-1.031-1.001c-0.309,0-0.709,0.092-1.139,0.323
		c-0.293-0.2-0.479-0.493-0.523-0.862c1.893-1,3.434-2.125,3.832-3.879l0.17-0.154c0.939-0.077,1.725,0.293,1.725,0.77
		c0,0.832-1.047,1.816-2.387,2.463L150.021,122.023z"/>
	<path fill="#036564" d="M169.377,125.796c0.355-1.663,0.756-3.618,0.756-4.049c0-0.462-0.047-0.815-0.277-0.954
		c-0.754,0.184-1.463,0.6-2.248,1.23c-0.201,1.51-0.4,3.064-0.555,4.635c-0.045,0.369-1.016,0.523-1.924,0.447l-0.17-0.154
		c0.34-1.756,0.57-3.342,0.785-4.973l0.539-3.941h-3.617l-0.832,6.527c-0.062,0.446-0.092,0.877-0.107,1.277
		c0.584,0.047,1.107,0.154,1.555,0.293c-0.031,0.339-0.092,0.646-0.23,0.939c-0.617-0.031-1.648-0.031-2.51-0.031
		c-1.002,0-1.832,0.031-2.557,0.031c-0.061-0.309-0.061-0.631-0.016-0.939c0.555-0.046,1.125-0.154,1.709-0.293
		c0.094-0.292,0.139-0.615,0.186-0.938l0.877-6.866h-1.924c-0.186,0.631-0.354,1.323-0.477,1.985c-0.355,0.093-0.725,0.108-1.156,0
		c-0.029-0.938,0.031-1.862,0.246-3.141l0.154-0.153c0.893,0.03,2.387,0.03,3.402,0.03h1.74h2.295
		c0.508-0.277,1.154-0.462,1.971-0.462c0.83,0,1.201,0.385,1.201,1.047c0,0.139,0,0.262-0.031,0.432l-0.385,2.971
		c0.908-0.831,1.877-1.293,2.816-1.293c1.016,0,1.447,0.708,1.447,1.523c0,1.017-0.369,2.895-0.754,4.742
		c0.447-0.076,0.924-0.199,1.324-0.369c0.23,0.17,0.354,0.4,0.4,0.724c-0.555,0.539-1.648,1.17-2.648,1.17
		c-0.738,0-1.031-0.446-1.031-0.954C169.332,126.135,169.348,125.965,169.377,125.796z"/>
	<path fill="#036564" d="M175.736,124.226c0.076,0.692,0.293,1.278,0.584,1.57c0.924-0.123,1.971-0.431,3.08-0.985
		c0.262,0.216,0.4,0.462,0.416,0.801c-1.447,1.001-2.941,1.693-4.311,1.693c-0.678,0-1.186-0.431-1.432-1.062
		c-0.201-0.554-0.264-1.293-0.264-2.001c0-2.802,1.68-4.788,4.066-4.788c1.338,0,2,1.062,2,2.633
		C179.877,122.701,177.861,123.533,175.736,124.226z M175.705,123.164c0.986-0.386,1.725-0.74,2.264-1.094
		c0-0.662-0.293-1.293-0.832-1.293c-0.184,0-0.354,0.03-0.555,0.107C176.168,121.301,175.781,122.178,175.705,123.164z"/>
	<path fill="#036564" d="M180.775,124.241c0-2.694,1.539-4.788,4.172-4.788c1.771,0,2.355,1.709,2.355,3.063
		c0,2.694-1.57,4.788-4.232,4.788C181.361,127.305,180.775,125.58,180.775,124.241z M184.654,125.796
		c0.371-0.446,0.756-1.478,0.756-2.602c0-1.602-0.369-2.433-1.154-2.433c-0.293,0-0.617,0.076-0.832,0.2
		c-0.385,0.431-0.77,1.432-0.77,2.617c0,1.57,0.338,2.417,1.201,2.417C184.117,125.996,184.439,125.904,184.654,125.796z"/>
	<path fill="#036564" d="M190.287,125.719c0.461-0.092,0.908-0.262,1.309-0.431c0.215,0.139,0.385,0.431,0.4,0.708
		c-0.555,0.601-1.771,1.247-2.648,1.247c-0.678,0-0.984-0.369-0.984-1.017c0-0.246,0.029-0.538,0.076-0.83l1.139-8.653
		c-0.445-0.108-0.877-0.153-1.324-0.153c-0.061-0.201-0.061-0.479,0.031-0.771c0.508-0.276,1.154-0.462,1.955-0.462
		c0.832,0,1.217,0.385,1.217,1.047c0,0.139,0,0.262-0.031,0.432L190.287,125.719z"/>
	<path fill="#036564" d="M192.699,124.241c0-2.694,1.539-4.788,4.172-4.788c1.771,0,2.355,1.709,2.355,3.063
		c0,2.694-1.57,4.788-4.232,4.788C193.285,127.305,192.699,125.58,192.699,124.241z M196.578,125.796
		c0.371-0.446,0.756-1.478,0.756-2.602c0-1.602-0.369-2.433-1.154-2.433c-0.293,0-0.617,0.076-0.832,0.2
		c-0.385,0.431-0.77,1.432-0.77,2.617c0,1.57,0.338,2.417,1.201,2.417C196.041,125.996,196.363,125.904,196.578,125.796z"/>
	<path fill="#036564" d="M206.867,120.207c-0.062,0.277-0.107,0.493-0.154,0.77l-0.492,3.865c-0.139,1.139-0.277,2.125-0.586,3.495
		c-0.322,1.432-1.848,2.817-3.756,2.817c-1.062,0-1.879-0.262-2.248-0.647c-0.107-0.092-0.139-0.292-0.139-0.492
		c0-0.478,0.4-1.093,0.723-1.354h0.232c0.4,0.677,1.047,1.093,1.861,1.093c0.4,0,0.924-0.123,1.186-0.308
		c0.324-1.062,0.523-2.141,0.693-3.342c-0.816,0.709-1.646,1.155-2.479,1.155s-1.246-0.446-1.416-1.093
		c-0.139-0.523-0.154-1.155-0.154-1.725c0-2.51,1.4-4.988,3.68-4.988c0.939,0,2.094,0.23,3.08,0.708L206.867,120.207z
		 M204.342,124.842l0.492-3.818c-0.4-0.17-0.816-0.262-1.186-0.262c-0.291,0-0.555,0.046-0.785,0.123
		c-0.461,0.477-0.846,1.57-0.846,3.049c0,0.954,0.092,1.678,0.291,1.955C202.957,125.766,203.664,125.365,204.342,124.842z"/>
	<path fill="#036564" d="M211.545,127.382c-1.17,1.324-1.848,2.479-2.418,3.726l-0.186,0.123c-0.738-0.015-1.477-0.492-1.477-0.831
		c0-0.416,1.309-1.971,2.523-2.987v-1.293c0-1.939-0.184-3.525-0.877-5.064c-0.445,0.03-0.801,0.092-1.17,0.184
		c-0.199-0.123-0.322-0.477-0.322-0.8c0.508-0.539,1.508-0.939,2.094-0.939c0.615,0,1.031,0.37,1.23,0.847
		c0.324,0.739,0.523,2.248,0.523,3.91c0,0.523,0,1.047-0.045,1.479h0.045c1.186-1.602,1.648-3.202,1.648-5.188
		c0-0.276-0.031-0.585-0.078-0.878l0.154-0.153c0.725,0,1.432,0.107,1.633,0.508c0.139,0.277,0.168,0.616,0.168,0.924
		C214.992,122.824,213.654,124.996,211.545,127.382z"/>
</g>
<g>
	<path fill="#071833" d="M10.248,33.08h12.69c0.756-2.376,1.404-4.752,1.944-7.236c0.972-0.216,1.89-0.108,2.862,0.216
		c0,3.402-0.162,6.75-0.594,10.152l-0.432,0.432c-3.348-0.108-8.91-0.108-12.69-0.108h-6.21c-2.376,0-4.536,0.108-6.858,0.108
		c-0.324-0.864-0.432-1.728-0.432-2.592c1.566-0.162,3.132-0.54,4.698-1.026c0.216-1.026,0.27-2.16,0.27-3.294V11.426
		c0-3.186-0.108-5.454-0.27-7.452C3.66,3.488,2.094,3.11,0.528,2.948c0-0.864,0.108-1.728,0.432-2.592
		c2.538,0,4.86,0.108,7.452,0.108c1.89,0,5.508,0,7.128-0.108c0.324,0.81,0.432,1.674,0.378,2.592
		c-1.62,0.486-3.456,0.864-5.454,1.026c-0.162,1.998-0.216,4.266-0.216,7.452V33.08z"/>
	<path fill="#071833" d="M42.551,10.454c7.452,0,9.612,4.968,9.612,9.666c0,1.242-0.108,2.646-0.27,3.348L51.461,23.9
		c-2.214-0.054-5.724-0.108-9.774-0.108h-6.264c0.27,4.374,2.052,9.667,7.344,9.667c2.376,0,5.238-0.648,8.586-1.944
		c0.648,0.486,0.864,1.134,0.918,1.944c-2.484,1.674-6.912,3.888-10.422,3.888c-7.722,0-10.962-5.724-10.962-13.068
		C30.887,17.582,35.693,10.454,42.551,10.454z M35.531,20.984h5.292c2.862,0,5.238-0.108,6.588-0.216
		c0-3.456-0.81-6.804-5.616-6.804c-1.134,0-3.024,0.378-3.672,1.026C36.881,16.34,35.909,18.446,35.531,20.984z"/>
	<path fill="#071833" d="M63.956,10.994c0.162,0.648,0.432,1.89,0.648,3.078c3.078-2.268,5.994-3.618,9.071-3.618
		c4.753,0,7.452,2.646,7.452,8.64v10.098c0,1.458,0.055,2.754,0.162,4.05c1.404,0.162,3.078,0.54,4.051,0.972
		c0,0.81-0.108,1.944-0.378,2.43c-1.404-0.054-4.753-0.108-5.994-0.108c-2.215,0-4.482,0.108-6.589,0.108
		c-0.162-0.432-0.323-1.566-0.323-2.43c1.458-0.162,3.239-0.54,4.319-0.918c0.162-1.188,0.216-1.944,0.216-3.024V21.2
		c0-4.05-0.647-7.02-4.914-7.02c-2.214,0-4.481,0.864-6.804,2.484v12.528c0,1.458,0.054,2.754,0.162,4.05
		c1.458,0.162,3.078,0.54,4.05,0.972c0,0.81-0.107,1.944-0.324,2.43c-1.458-0.054-4.752-0.108-6.048-0.108
		c-2.214,0-4.482,0.108-6.534,0.108c-0.216-0.432-0.378-1.566-0.378-2.43c1.512-0.162,3.24-0.54,4.32-0.918
		c0.162-1.188,0.216-1.944,0.216-3.024V15.53c-1.404-0.432-2.862-0.702-4.266-0.864c-0.216-0.702-0.324-1.458-0.216-2.106
		c1.998-0.81,4.915-1.674,7.668-1.944L63.956,10.994z"/>
	<path fill="#071833" d="M89.627,14.504c-1.026-0.216-2.646-0.54-4.05-0.702c-0.217-0.702-0.217-1.458-0.108-2.16
		c1.242-0.324,2.646-0.54,4.158-0.648l1.782-7.344c0.863-0.054,1.728-0.054,2.754,0.324v7.128l8.424,0.108
		c0,1.188-0.054,2.214-0.216,3.294h-8.208v13.068c0,3.942,0.81,5.94,2.538,5.94c1.89,0,3.401-0.432,5.346-1.134
		c0.594,0.594,0.918,1.404,0.918,2.43c-2.16,1.296-5.292,2.538-8.37,2.538c-3.672,0-4.968-2.754-4.968-7.722V14.504z"/>
	<path fill="#071833" d="M116.281,10.454c7.452,0,9.612,4.968,9.612,9.666c0,1.242-0.108,2.646-0.271,3.348l-0.432,0.432
		c-2.214-0.054-5.724-0.108-9.774-0.108h-6.264c0.27,4.374,2.052,9.667,7.344,9.667c2.376,0,5.238-0.648,8.586-1.944
		c0.648,0.486,0.864,1.134,0.918,1.944c-2.483,1.674-6.912,3.888-10.422,3.888c-7.722,0-10.962-5.724-10.962-13.068
		C104.617,17.582,109.423,10.454,116.281,10.454z M109.261,20.984h5.292c2.862,0,5.238-0.108,6.589-0.216
		c0-3.456-0.811-6.804-5.616-6.804c-1.134,0-3.024,0.378-3.672,1.026C110.611,16.34,109.639,18.446,109.261,20.984z"/>
	<path fill="#C02943" d="M134.484,30.218c2.106,0,3.727,1.458,3.727,3.456c0,2.052-1.62,3.672-3.727,3.672
		c-2.105,0-3.726-1.62-3.726-3.672C130.759,31.676,132.379,30.218,134.484,30.218z"/>
	<path fill="#071833" d="M150.506,10.994c0.162,0.648,0.432,1.89,0.648,3.078c3.078-2.268,5.994-3.618,9.071-3.618
		c4.753,0,7.452,2.646,7.452,8.64v10.098c0,1.458,0.055,2.754,0.162,4.05c1.404,0.162,3.078,0.54,4.051,0.972
		c0,0.81-0.108,1.944-0.378,2.43c-1.404-0.054-4.753-0.108-5.994-0.108c-2.215,0-4.482,0.108-6.589,0.108
		c-0.162-0.432-0.323-1.566-0.323-2.43c1.458-0.162,3.239-0.54,4.319-0.918c0.162-1.188,0.217-1.944,0.217-3.024V21.2
		c0-4.05-0.648-7.02-4.915-7.02c-2.214,0-4.481,0.864-6.804,2.484v12.528c0,1.458,0.054,2.754,0.162,4.05
		c1.458,0.162,3.078,0.54,4.05,0.972c0,0.81-0.107,1.944-0.324,2.43c-1.458-0.054-4.752-0.108-6.048-0.108
		c-2.214,0-4.481,0.108-6.534,0.108c-0.216-0.432-0.378-1.566-0.378-2.43c1.513-0.162,3.24-0.54,4.32-0.918
		c0.162-1.188,0.216-1.944,0.216-3.024V15.53c-1.404-0.432-2.862-0.702-4.266-0.864c-0.216-0.702-0.324-1.458-0.216-2.106
		c1.997-0.81,4.914-1.674,7.668-1.944L150.506,10.994z"/>
	<path fill="#071833" d="M185.308,10.454c7.452,0,9.612,4.968,9.612,9.666c0,1.242-0.108,2.646-0.271,3.348l-0.432,0.432
		c-2.214-0.054-5.724-0.108-9.774-0.108h-6.264c0.27,4.374,2.052,9.667,7.344,9.667c2.376,0,5.238-0.648,8.586-1.944
		c0.648,0.486,0.864,1.134,0.918,1.944c-2.483,1.674-6.912,3.888-10.422,3.888c-7.722,0-10.962-5.724-10.962-13.068
		C173.644,17.582,178.449,10.454,185.308,10.454z M178.287,20.984h5.293c2.861,0,5.237-0.108,6.588-0.216
		c0-3.456-0.811-6.804-5.616-6.804c-1.134,0-3.024,0.378-3.672,1.026C179.638,16.34,178.665,18.446,178.287,20.984z"/>
	<path fill="#071833" d="M201.691,14.504c-1.026-0.216-2.646-0.54-4.05-0.702c-0.217-0.702-0.217-1.458-0.108-2.16
		c1.242-0.324,2.646-0.54,4.158-0.648l1.782-7.344c0.863-0.054,1.728-0.054,2.754,0.324v7.128l8.424,0.108
		c0,1.188-0.054,2.214-0.216,3.294h-8.208v13.068c0,3.942,0.81,5.94,2.538,5.94c1.89,0,3.401-0.432,5.346-1.134
		c0.594,0.594,0.918,1.404,0.918,2.43c-2.16,1.296-5.292,2.538-8.37,2.538c-3.672,0-4.968-2.754-4.968-7.722V14.504z"/>
</g>
<g>
	<path fill="#036564" d="M7.326,57.918c-0.739-0.031-1.494-0.062-2.171-0.062h-0.97l-0.877,2.001l1.247,0.277
		c-0.031,0.339-0.092,0.646-0.215,0.939c-0.57-0.031-1.401-0.031-1.971-0.031c-0.678,0-1.232,0.031-1.74,0.031
		c-0.046-0.308-0.031-0.631,0.015-0.939c0.385-0.046,0.785-0.154,1.186-0.292l4.111-8.93c0.508-0.154,1.139-0.247,1.848-0.247
		l1.924,9.176c0.385,0.046,0.724,0.154,1.032,0.292c-0.031,0.339-0.093,0.646-0.216,0.939c-0.493-0.031-1.339-0.031-2.032-0.031
		c-0.832,0-1.555,0.031-2.202,0.031c-0.046-0.308-0.046-0.631,0.016-0.939l1.401-0.277L7.326,57.918z M4.693,56.702h2.386
		l-0.57-2.91l0.139-1.401H6.602L4.693,56.702z"/>
	<path fill="#036564" d="M12.724,54.916c-0.446-0.108-0.862-0.154-1.309-0.154c-0.062-0.216-0.077-0.493,0.016-0.77
		c0.508-0.292,1.155-0.477,1.955-0.477c0.816,0,1.201,0.385,1.201,1.047v0.2c0.908-0.847,1.863-1.309,2.817-1.309
		c1.032,0,1.462,0.708,1.462,1.524c0,1.016-0.385,2.895-0.77,4.742c0.446-0.077,0.924-0.2,1.324-0.37
		c0.231,0.169,0.369,0.4,0.416,0.724c-0.57,0.539-1.647,1.17-2.664,1.17c-0.739,0-1.016-0.446-1.016-0.955
		c0-0.154,0.015-0.323,0.046-0.493c0.339-1.663,0.739-3.618,0.739-4.049c0-0.462-0.046-0.816-0.277-0.955
		c-0.739,0.185-1.447,0.6-2.248,1.231c-0.185,1.509-0.385,3.08-0.539,4.634c-0.046,0.37-1.016,0.523-1.909,0.447l-0.169-0.154
		c0.338-1.755,0.585-3.341,0.785-4.973L12.724,54.916z"/>
	<path fill="#036564" d="M23.504,56.902c0-3.203,1.924-6.436,5.389-6.436c2.479,0,3.741,1.925,3.741,4.435
		c0,3.202-1.924,6.436-5.389,6.436C24.751,61.336,23.504,59.412,23.504,56.902z M29.263,59.489c0.616-0.693,1.37-1.986,1.37-4.08
		c0-1.878-0.662-3.479-2.31-3.479c-0.554,0-1.016,0.154-1.462,0.385c-0.601,0.662-1.355,1.986-1.355,4.08
		c0,1.878,0.646,3.479,2.31,3.479C28.37,59.874,28.832,59.735,29.263,59.489z"/>
	<path fill="#036564" d="M38.848,57.918c-0.739-0.031-1.494-0.062-2.171-0.062h-0.97l-0.877,2.001l1.247,0.277
		c-0.031,0.339-0.092,0.646-0.215,0.939c-0.57-0.031-1.401-0.031-1.971-0.031c-0.678,0-1.232,0.031-1.74,0.031
		c-0.046-0.308-0.031-0.631,0.015-0.939c0.385-0.046,0.785-0.154,1.186-0.292l4.111-8.93c0.508-0.154,1.139-0.247,1.848-0.247
		l1.924,9.176c0.385,0.046,0.724,0.154,1.032,0.292c-0.031,0.339-0.093,0.646-0.216,0.939c-0.493-0.031-1.339-0.031-2.032-0.031
		c-0.832,0-1.555,0.031-2.202,0.031c-0.046-0.308-0.046-0.631,0.016-0.939l1.401-0.277L38.848,57.918z M36.215,56.702h2.386
		l-0.569-2.91l0.138-1.401h-0.046L36.215,56.702z"/>
	<path fill="#036564" d="M47.873,52.145c-0.416,0.046-0.847,0.139-1.232,0.231c-0.169-0.323-0.215-0.693-0.169-1.124
		c1.355-0.385,2.71-0.601,4.342-0.601c2.217,0,3.541,0.955,3.541,2.556c0,2.248-2.171,4.142-4.295,4.142
		c-0.247,0-0.585,0-0.939-0.046l-0.154,1.263c-0.062,0.446-0.092,0.877-0.107,1.278c0.585,0.046,1.108,0.154,1.555,0.292
		c-0.031,0.339-0.092,0.646-0.231,0.939c-0.616-0.031-1.663-0.031-2.479-0.031c-0.847,0-1.555,0.031-2.187,0.031
		c-0.046-0.308-0.031-0.631,0.016-0.939c0.416-0.046,0.847-0.154,1.293-0.292c0.093-0.292,0.139-0.616,0.185-0.939L47.873,52.145z
		 M49.797,51.945l-0.508,4.034c0.292,0.015,0.523,0.015,0.708,0.015c0.677,0,1.201-0.139,1.555-0.292
		c0.539-0.493,0.786-1.216,0.786-1.955c0-0.97-0.801-1.801-2.002-1.801H49.797z"/>
	<path fill="#036564" d="M56.399,54.916c-0.446-0.108-0.862-0.154-1.309-0.154c-0.062-0.216-0.077-0.493,0.016-0.77
		c0.508-0.292,1.155-0.477,1.955-0.477c0.816,0,1.201,0.385,1.201,1.047c0,0.139,0,0.262-0.031,0.431l-0.062,0.369
		c0.662-1.078,1.432-1.955,2.14-1.955c0.739,0,1.17,0.832,1.17,1.355c0,0.354-0.601,0.939-1.232,1.201
		c-0.185-0.262-0.462-0.554-0.785-0.785c-0.554,0.493-1.031,1.032-1.478,1.709c-0.154,1.247-0.308,2.525-0.431,3.772
		c-0.046,0.37-1.016,0.523-1.909,0.447l-0.169-0.154c0.338-1.755,0.585-3.341,0.785-4.973L56.399,54.916z"/>
	<path fill="#036564" d="M63.706,58.226c0.077,0.693,0.292,1.278,0.585,1.57c0.924-0.123,1.971-0.431,3.079-0.985
		c0.262,0.216,0.4,0.462,0.416,0.801c-1.447,1.001-2.941,1.693-4.312,1.693c-0.677,0-1.185-0.431-1.432-1.062
		c-0.2-0.554-0.262-1.293-0.262-2.001c0-2.802,1.678-4.788,4.064-4.788c1.34,0,2.002,1.062,2.002,2.632
		C67.848,56.702,65.831,57.533,63.706,58.226z M63.675,57.164c0.985-0.385,1.725-0.739,2.264-1.093c0-0.662-0.293-1.293-0.832-1.293
		c-0.185,0-0.354,0.031-0.554,0.108C64.137,55.301,63.752,56.179,63.675,57.164z"/>
	<path fill="#036564" d="M68.552,60.197c0-0.369,0.216-0.8,0.523-1.093c0.601,0.508,1.217,0.8,1.879,0.8
		c0.23,0,0.523-0.062,0.724-0.169c0.092-0.154,0.154-0.369,0.154-0.616c0-0.477-0.848-1.093-1.371-1.447
		c-0.677-0.462-1.154-1.047-1.154-1.832c0-1.17,1.416-2.34,2.771-2.34c1.016,0,1.986,0.308,1.986,0.754
		c0,0.57-0.247,1.032-0.724,1.339c-0.462-0.446-1.017-0.739-1.479-0.739c-0.185,0-0.416,0.015-0.616,0.108
		c-0.092,0.138-0.138,0.277-0.138,0.493c0,0.431,0.646,0.908,1.247,1.293c0.831,0.539,1.323,1.155,1.323,2.017
		c0,1.031-1.247,2.494-3.095,2.494c-0.723,0-1.277-0.092-1.709-0.354C68.629,60.751,68.552,60.474,68.552,60.197z"/>
	<path fill="#036564" d="M74.506,60.197c0-0.369,0.216-0.8,0.523-1.093c0.601,0.508,1.217,0.8,1.879,0.8
		c0.23,0,0.523-0.062,0.724-0.169c0.092-0.154,0.153-0.369,0.153-0.616c0-0.477-0.847-1.093-1.37-1.447
		c-0.677-0.462-1.154-1.047-1.154-1.832c0-1.17,1.416-2.34,2.771-2.34c1.016,0,1.986,0.308,1.986,0.754
		c0,0.57-0.247,1.032-0.724,1.339c-0.462-0.446-1.017-0.739-1.479-0.739c-0.185,0-0.416,0.015-0.616,0.108
		c-0.092,0.138-0.138,0.277-0.138,0.493c0,0.431,0.646,0.908,1.247,1.293c0.831,0.539,1.323,1.155,1.323,2.017
		c0,1.031-1.247,2.494-3.095,2.494c-0.724,0-1.277-0.092-1.708-0.354C74.583,60.751,74.506,60.474,74.506,60.197z"/>
	<path fill="#036564" d="M85.24,53.669l0.215-1.355c0.262-1.555,1.586-2.956,3.434-2.956c0.955,0,1.632,0.247,2.002,0.724
		c0.185,0.247-0.616,1.124-1.263,1.293c-0.416-0.37-0.908-0.601-1.401-0.601c-0.185,0-0.4,0.031-0.569,0.092
		c-0.277,0.277-0.508,1.617-0.662,2.802c0.646,0.016,1.231,0.046,1.771,0.123c0,0.462-0.062,0.847-0.216,1.186H86.84l-0.446,3.865
		c-0.216,1.832-0.431,3.741-0.616,5.681c-0.046,0.37-0.985,0.523-1.924,0.446L83.7,64.816c0.323-1.755,0.555-3.341,0.77-4.973
		l0.478-3.818l0.123-1.047h-1.4c0-0.523,0.092-1.309,0.354-1.309H85.24z"/>
	<path fill="#036564" d="M88.944,58.242c0-2.694,1.539-4.788,4.172-4.788c1.771,0,2.355,1.709,2.355,3.063
		c0,2.694-1.57,4.788-4.233,4.788C89.529,61.305,88.944,59.581,88.944,58.242z M92.823,59.796c0.37-0.446,0.755-1.478,0.755-2.602
		c0-1.602-0.369-2.433-1.154-2.433c-0.293,0-0.616,0.077-0.832,0.2c-0.385,0.431-0.77,1.432-0.77,2.617
		c0,1.57,0.339,2.417,1.201,2.417C92.285,59.997,92.608,59.904,92.823,59.796z"/>
	<path fill="#036564" d="M97.551,54.916c-0.446-0.108-0.862-0.154-1.309-0.154c-0.062-0.216-0.077-0.493,0.016-0.77
		c0.508-0.292,1.154-0.477,1.955-0.477c0.816,0,1.201,0.385,1.201,1.047c0,0.139,0,0.262-0.031,0.431l-0.062,0.369
		c0.662-1.078,1.432-1.955,2.141-1.955c0.738,0,1.17,0.832,1.17,1.355c0,0.354-0.601,0.939-1.231,1.201
		c-0.186-0.262-0.462-0.554-0.785-0.785c-0.555,0.493-1.032,1.032-1.479,1.709c-0.154,1.247-0.308,2.525-0.431,3.772
		c-0.047,0.37-1.017,0.523-1.909,0.447l-0.17-0.154c0.339-1.755,0.585-3.341,0.785-4.973L97.551,54.916z"/>
	<path fill="#036564" d="M106.96,58.919l0.847-6.79c-0.385,0.062-0.738,0.139-1.123,0.246c-0.216-0.323-0.277-0.693-0.2-1.124
		c1.493-0.416,2.956-0.601,4.342-0.601c2.078,0,3.125,0.832,3.125,2.171c0,0.985-0.678,1.878-1.663,2.417
		c1.201,0.37,1.848,1.247,1.848,2.31c0,1.74-1.539,3.557-3.849,3.557c-0.785,0-1.74-0.062-2.787-0.062
		c-0.724,0-1.354,0.031-2.032,0.031c-0.046-0.293-0.046-0.631,0.016-0.939c0.446-0.046,0.893-0.154,1.293-0.292
		C106.884,59.52,106.915,59.242,106.96,58.919z M109.208,56.302l-0.446,3.479h1.231c0.616,0,1.155-0.123,1.509-0.277
		c0.385-0.4,0.632-1.031,0.632-1.601c0-0.816-0.539-1.647-1.956-1.647C109.886,56.255,109.579,56.271,109.208,56.302z
		 M110.61,55.024c0.815-0.277,1.339-1.047,1.339-1.694c0-0.97-0.754-1.417-1.616-1.417c-0.169,0-0.354,0-0.569,0.016l-0.4,3.171
		C109.809,55.055,110.225,55.039,110.61,55.024z"/>
	<path fill="#036564" d="M116.284,54.916c-0.446-0.108-0.862-0.154-1.309-0.154c-0.062-0.216-0.092-0.493,0-0.77
		c0.508-0.292,1.17-0.477,1.986-0.477c0.816,0,1.185,0.369,1.185,1.016c0,0.169,0,0.308-0.031,0.462l-0.631,4.727
		c0.479-0.092,0.939-0.262,1.324-0.431c0.215,0.139,0.385,0.431,0.4,0.708c-0.57,0.601-1.785,1.247-2.679,1.247
		c-0.677,0-0.97-0.369-0.97-1.016c0-0.246,0.031-0.523,0.077-0.816C115.822,58.226,115.976,57.164,116.284,54.916z M116.161,51.467
		c0-0.646,0.585-1.447,1.279-1.447c0.537,0,1.107,0.416,1.107,1.016c0,0.678-0.57,1.386-1.277,1.432
		C116.761,52.468,116.161,52.021,116.161,51.467z"/>
	<path fill="#036564" d="M121.32,50.744c-0.461-0.108-0.877-0.154-1.324-0.154c-0.061-0.2-0.061-0.478,0.016-0.77
		c0.508-0.277,1.17-0.462,1.971-0.462c0.832,0,1.217,0.385,1.217,1.047c0,0.139-0.016,0.262-0.031,0.431l-0.523,3.972
		c0.863-0.847,1.74-1.309,2.602-1.309c0.801,0,1.232,0.431,1.387,1.078c0.123,0.508,0.139,1.124,0.139,1.771
		c0,2.448-1.293,4.958-3.742,4.958c-1.154,0-2.154-0.308-3.033-0.877c0.078-0.292,0.123-0.523,0.17-0.816L121.32,50.744z
		 M122.49,56.086l-0.461,3.542c0.416,0.231,0.846,0.369,1.277,0.369c0.293,0,0.57-0.062,0.754-0.138
		c0.447-0.478,0.832-1.571,0.832-3.049c0-0.97-0.092-1.678-0.277-1.955C123.922,55.008,123.184,55.486,122.49,56.086z"/>
	<path fill="#036564" d="M129.816,59.72c0.463-0.092,0.91-0.262,1.309-0.431c0.217,0.139,0.387,0.431,0.4,0.708
		c-0.553,0.601-1.77,1.247-2.646,1.247c-0.678,0-0.986-0.369-0.986-1.016c0-0.246,0.031-0.539,0.078-0.831l1.139-8.653
		c-0.447-0.108-0.877-0.154-1.324-0.154c-0.062-0.2-0.062-0.478,0.031-0.77c0.508-0.277,1.154-0.462,1.955-0.462
		c0.83,0,1.217,0.385,1.217,1.047c0,0.139,0,0.262-0.031,0.431L129.816,59.72z"/>
	<path fill="#036564" d="M134.207,58.226c0.078,0.693,0.293,1.278,0.586,1.57c0.924-0.123,1.971-0.431,3.078-0.985
		c0.262,0.216,0.4,0.462,0.416,0.801c-1.447,1.001-2.939,1.693-4.311,1.693c-0.678,0-1.186-0.431-1.432-1.062
		c-0.199-0.554-0.262-1.293-0.262-2.001c0-2.802,1.678-4.788,4.064-4.788c1.34,0,2.002,1.062,2.002,2.632
		C138.35,56.702,136.332,57.533,134.207,58.226z M134.178,57.164c0.984-0.385,1.723-0.739,2.262-1.093
		c0-0.662-0.291-1.293-0.83-1.293c-0.186,0-0.355,0.031-0.555,0.108C134.639,55.301,134.254,56.179,134.178,57.164z"/>
	<path fill="#036564" d="M150.021,56.024l0.016,0.062h0.555c0.707,0,1.416,0.416,1.416,1.263c0,2.186-2.941,3.941-6.082,3.941
		c-2.371,0-3.633-1.17-3.633-2.864c0-1.231,0.832-2.448,2.172-3.048c-0.525-0.385-0.787-1.016-0.787-1.693
		c0-1.586,1.986-3.172,3.928-3.172c0.83,0,1.615,0.123,2.4,0.416c-0.139,0.985-0.354,1.909-0.707,2.725
		c-0.385,0.062-0.77,0.062-1.125-0.107c0.047-0.462,0.047-1.001-0.016-1.463c-0.277-0.077-0.662-0.107-1-0.107
		c-0.369,0-0.738,0.062-1.154,0.215c-0.277,0.308-0.463,0.724-0.463,1.231c0,0.647,0.277,1.293,0.924,1.293
		c0.154,0,0.369-0.015,0.555-0.046l0.154,0.154c0.139,0.601-0.186,1.293-0.646,1.293c-0.586,0-1.154,0.093-1.678,0.354
		c-0.371,0.4-0.555,0.847-0.555,1.432c0,1.124,0.846,1.925,2.494,1.925c1.277,0,2.201-0.293,3.156-0.985
		c0.168-0.308,0.215-0.601,0.215-0.862c0-0.554-0.338-1.001-1.031-1.001c-0.309,0-0.709,0.092-1.139,0.323
		c-0.293-0.2-0.479-0.493-0.523-0.862c1.893-1.001,3.434-2.125,3.832-3.88l0.17-0.154c0.939-0.077,1.725,0.293,1.725,0.77
		c0,0.832-1.047,1.817-2.387,2.463L150.021,56.024z"/>
	<path fill="#036564" d="M169.377,59.796c0.355-1.663,0.756-3.618,0.756-4.049c0-0.462-0.047-0.816-0.277-0.955
		c-0.754,0.185-1.463,0.6-2.248,1.231c-0.201,1.509-0.4,3.064-0.555,4.634c-0.045,0.37-1.016,0.523-1.924,0.447l-0.17-0.154
		c0.34-1.755,0.57-3.341,0.785-4.973l0.539-3.941h-3.617l-0.832,6.528c-0.062,0.446-0.092,0.877-0.107,1.278
		c0.584,0.046,1.107,0.154,1.555,0.292c-0.031,0.339-0.092,0.646-0.23,0.939c-0.617-0.031-1.648-0.031-2.51-0.031
		c-1.002,0-1.832,0.031-2.557,0.031c-0.061-0.308-0.061-0.631-0.016-0.939c0.555-0.046,1.125-0.154,1.709-0.292
		c0.094-0.292,0.139-0.616,0.186-0.939l0.877-6.867h-1.924c-0.186,0.631-0.354,1.324-0.477,1.986c-0.355,0.092-0.725,0.108-1.156,0
		c-0.029-0.939,0.031-1.863,0.246-3.141l0.154-0.154c0.893,0.031,2.387,0.031,3.402,0.031h1.74h2.295
		c0.508-0.277,1.154-0.462,1.971-0.462c0.83,0,1.201,0.385,1.201,1.047c0,0.139,0,0.262-0.031,0.431l-0.385,2.971
		c0.908-0.831,1.877-1.293,2.816-1.293c1.016,0,1.447,0.708,1.447,1.524c0,1.016-0.369,2.895-0.754,4.742
		c0.447-0.077,0.924-0.2,1.324-0.37c0.23,0.169,0.354,0.4,0.4,0.724c-0.555,0.539-1.648,1.17-2.648,1.17
		c-0.738,0-1.031-0.446-1.031-0.955C169.332,60.135,169.348,59.966,169.377,59.796z"/>
	<path fill="#036564" d="M175.736,58.226c0.076,0.693,0.293,1.278,0.584,1.57c0.924-0.123,1.971-0.431,3.08-0.985
		c0.262,0.216,0.4,0.462,0.416,0.801c-1.447,1.001-2.941,1.693-4.311,1.693c-0.678,0-1.186-0.431-1.432-1.062
		c-0.201-0.554-0.264-1.293-0.264-2.001c0-2.802,1.68-4.788,4.066-4.788c1.338,0,2,1.062,2,2.632
		C179.877,56.702,177.861,57.533,175.736,58.226z M175.705,57.164c0.986-0.385,1.725-0.739,2.264-1.093
		c0-0.662-0.293-1.293-0.832-1.293c-0.184,0-0.354,0.031-0.555,0.108C176.168,55.301,175.781,56.179,175.705,57.164z"/>
	<path fill="#036564" d="M180.775,58.242c0-2.694,1.539-4.788,4.172-4.788c1.771,0,2.355,1.709,2.355,3.063
		c0,2.694-1.57,4.788-4.232,4.788C181.361,61.305,180.775,59.581,180.775,58.242z M184.654,59.796
		c0.371-0.446,0.756-1.478,0.756-2.602c0-1.602-0.369-2.433-1.154-2.433c-0.293,0-0.617,0.077-0.832,0.2
		c-0.385,0.431-0.77,1.432-0.77,2.617c0,1.57,0.338,2.417,1.201,2.417C184.117,59.997,184.439,59.904,184.654,59.796z"/>
	<path fill="#036564" d="M190.287,59.72c0.461-0.092,0.908-0.262,1.309-0.431c0.215,0.139,0.385,0.431,0.4,0.708
		c-0.555,0.601-1.771,1.247-2.648,1.247c-0.678,0-0.984-0.369-0.984-1.016c0-0.246,0.029-0.539,0.076-0.831l1.139-8.653
		c-0.445-0.108-0.877-0.154-1.324-0.154c-0.061-0.2-0.061-0.478,0.031-0.77c0.508-0.277,1.154-0.462,1.955-0.462
		c0.832,0,1.217,0.385,1.217,1.047c0,0.139,0,0.262-0.031,0.431L190.287,59.72z"/>
	<path fill="#036564" d="M192.699,58.242c0-2.694,1.539-4.788,4.172-4.788c1.771,0,2.355,1.709,2.355,3.063
		c0,2.694-1.57,4.788-4.232,4.788C193.285,61.305,192.699,59.581,192.699,58.242z M196.578,59.796
		c0.371-0.446,0.756-1.478,0.756-2.602c0-1.602-0.369-2.433-1.154-2.433c-0.293,0-0.617,0.077-0.832,0.2
		c-0.385,0.431-0.77,1.432-0.77,2.617c0,1.57,0.338,2.417,1.201,2.417C196.041,59.997,196.363,59.904,196.578,59.796z"/>
	<path fill="#036564" d="M206.867,54.208c-0.062,0.277-0.107,0.493-0.154,0.77l-0.492,3.865c-0.139,1.139-0.277,2.125-0.586,3.495
		c-0.322,1.432-1.848,2.817-3.756,2.817c-1.062,0-1.879-0.262-2.248-0.647c-0.107-0.092-0.139-0.292-0.139-0.492
		c0-0.478,0.4-1.093,0.723-1.354h0.232c0.4,0.677,1.047,1.093,1.861,1.093c0.4,0,0.924-0.123,1.186-0.308
		c0.324-1.062,0.523-2.141,0.693-3.341c-0.816,0.708-1.646,1.155-2.479,1.155s-1.246-0.446-1.416-1.093
		c-0.139-0.523-0.154-1.155-0.154-1.724c0-2.51,1.4-4.988,3.68-4.988c0.939,0,2.094,0.231,3.08,0.708L206.867,54.208z
		 M204.342,58.842l0.492-3.818c-0.4-0.169-0.816-0.262-1.186-0.262c-0.291,0-0.555,0.046-0.785,0.123
		c-0.461,0.477-0.846,1.57-0.846,3.048c0,0.955,0.092,1.678,0.291,1.956C202.957,59.766,203.664,59.366,204.342,58.842z"/>
	<path fill="#036564" d="M211.545,61.382c-1.17,1.324-1.848,2.479-2.418,3.726l-0.186,0.123c-0.738-0.015-1.477-0.492-1.477-0.831
		c0-0.416,1.309-1.971,2.523-2.987V60.12c0-1.94-0.184-3.526-0.877-5.065c-0.445,0.031-0.801,0.092-1.17,0.185
		c-0.199-0.123-0.322-0.477-0.322-0.8c0.508-0.539,1.508-0.939,2.094-0.939c0.615,0,1.031,0.37,1.23,0.847
		c0.324,0.739,0.523,2.248,0.523,3.911c0,0.523,0,1.047-0.045,1.478h0.045c1.186-1.601,1.648-3.202,1.648-5.188
		c0-0.277-0.031-0.585-0.078-0.877l0.154-0.154c0.725,0,1.432,0.107,1.633,0.508c0.139,0.277,0.168,0.616,0.168,0.924
		C214.992,56.825,213.654,58.996,211.545,61.382z"/>
</g>
<g>
</g>
<g>
</g>
<g>
</g>
<g>
</g>
<g>
</g>
<g>
</g>
</svg>
