<?xml version="1.0" encoding="utf-8"?>
<!-- Generator: Adobe Illustrator 16.0.0, SVG Export Plug-In . SVG Version: 6.00 Build 0)  -->
<!DOCTYPE svg PUBLIC "-//W3C//DTD SVG 1.1//EN" "http://www.w3.org/Graphics/SVG/1.1/DTD/svg11.dtd">
<svg version="1.1" id="Layer_1" xmlns="http://www.w3.org/2000/svg" xmlns:xlink="http://www.w3.org/1999/xlink" x="0px" y="0px"
	 width="229px" height="66px" viewBox="0 0 229 66" enable-background="new 0 0 229 66" xml:space="preserve">
<g>
	<path d="M11.659,34.71h12.923c0.77-2.419,1.43-4.839,1.98-7.369c0.99-0.22,1.925-0.11,2.915,0.22c0,3.464-0.165,6.875-0.605,10.339
		l-0.44,0.439c-3.41-0.11-9.074-0.11-12.923-0.11H9.184c-2.419,0-4.619,0.11-6.984,0.11c-0.33-0.88-0.44-1.76-0.44-2.64
		c1.595-0.165,3.189-0.55,4.784-1.045c0.22-1.045,0.275-2.2,0.275-3.354V12.658c0-3.245-0.11-5.554-0.275-7.589
		C4.949,4.574,3.354,4.189,1.76,4.024c0-0.88,0.11-1.76,0.44-2.64c2.584,0,4.949,0.11,7.589,0.11c1.925,0,5.609,0,7.259-0.11
		c0.33,0.825,0.44,1.705,0.385,2.64c-1.65,0.495-3.52,0.88-5.554,1.045c-0.165,2.035-0.22,4.344-0.22,7.589V34.71z"/>
	<path d="M44.383,11.668c7.589,0,9.789,5.06,9.789,9.844c0,1.265-0.11,2.695-0.275,3.41l-0.439,0.44
		c-2.255-0.055-5.83-0.11-9.954-0.11h-6.379c0.274,4.455,2.09,9.844,7.479,9.844c2.42,0,5.335-0.66,8.744-1.98
		c0.66,0.495,0.88,1.154,0.935,1.98c-2.529,1.704-7.039,3.959-10.613,3.959c-7.864,0-11.163-5.829-11.163-13.309
		C32.505,18.927,37.399,11.668,44.383,11.668z M37.234,22.392h5.39c2.915,0,5.334-0.11,6.709-0.22c0-3.52-0.825-6.929-5.719-6.929
		c-1.155,0-3.08,0.385-3.74,1.045C38.609,17.663,37.62,19.807,37.234,22.392z"/>
	<path d="M66.713,12.218c0.165,0.66,0.439,1.925,0.66,3.134c3.134-2.31,6.104-3.685,9.238-3.685c4.84,0,7.589,2.695,7.589,8.799
		V30.75c0,1.485,0.056,2.805,0.165,4.125c1.43,0.165,3.135,0.55,4.125,0.99c0,0.824-0.11,1.979-0.386,2.475
		c-1.43-0.055-4.839-0.11-6.104-0.11c-2.255,0-4.564,0.11-6.709,0.11c-0.165-0.439-0.33-1.595-0.33-2.475
		c1.484-0.165,3.299-0.551,4.399-0.936c0.165-1.209,0.22-1.979,0.22-3.079v-9.239c0-4.125-0.66-7.149-5.004-7.149
		c-2.255,0-4.564,0.88-6.93,2.529V30.75c0,1.485,0.055,2.805,0.165,4.125c1.485,0.165,3.135,0.55,4.125,0.99
		c0,0.824-0.11,1.979-0.33,2.475c-1.485-0.055-4.84-0.11-6.159-0.11c-2.255,0-4.564,0.11-6.654,0.11
		c-0.22-0.439-0.385-1.595-0.385-2.475c1.539-0.165,3.299-0.551,4.399-0.936c0.165-1.209,0.22-1.979,0.22-3.079V16.837
		c-1.43-0.44-2.915-0.715-4.345-0.88c-0.22-0.715-0.33-1.485-0.22-2.145c2.035-0.825,5.004-1.705,7.809-1.98L66.713,12.218z"/>
	<path d="M94.653,15.792c-1.045-0.22-2.694-0.55-4.124-0.715c-0.22-0.715-0.22-1.485-0.11-2.2c1.265-0.33,2.695-0.55,4.234-0.66
		l1.815-7.479c0.88-0.055,1.76-0.055,2.805,0.33v7.259l8.578,0.11c0,1.21-0.055,2.255-0.22,3.354h-8.358v13.309
		c0,4.014,0.824,6.049,2.584,6.049c1.925,0,3.465-0.44,5.444-1.155c0.605,0.604,0.935,1.43,0.935,2.475
		c-2.199,1.319-5.389,2.585-8.523,2.585c-3.739,0-5.06-2.805-5.06-7.864V15.792z"/>
	<path d="M122.592,11.668c7.59,0,9.789,5.06,9.789,9.844c0,1.265-0.109,2.695-0.275,3.41l-0.439,0.44
		c-2.254-0.055-5.83-0.11-9.953-0.11h-6.379c0.273,4.455,2.09,9.844,7.479,9.844c2.42,0,5.334-0.66,8.744-1.98
		c0.66,0.495,0.879,1.154,0.934,1.98c-2.529,1.704-7.039,3.959-10.613,3.959c-7.864,0-11.163-5.829-11.163-13.309
		C110.714,18.927,115.607,11.668,122.592,11.668z M115.443,22.392h5.389c2.916,0,5.334-0.11,6.709-0.22
		c0-3.52-0.824-6.929-5.719-6.929c-1.154,0-3.08,0.385-3.74,1.045C116.818,17.663,115.828,19.807,115.443,22.392z"/>
	<path d="M141.787,31.795c2.145,0,3.795,1.485,3.795,3.519c0,2.09-1.65,3.74-3.795,3.74s-3.793-1.65-3.793-3.74
		C137.994,33.28,139.643,31.795,141.787,31.795z"/>
	<path d="M159.223,12.218c0.164,0.66,0.439,1.925,0.66,3.134c3.133-2.31,6.104-3.685,9.238-3.685c4.84,0,7.588,2.695,7.588,8.799
		V30.75c0,1.485,0.057,2.805,0.166,4.125c1.43,0.165,3.135,0.55,4.125,0.99c0,0.824-0.111,1.979-0.387,2.475
		c-1.43-0.055-4.838-0.11-6.104-0.11c-2.254,0-4.564,0.11-6.709,0.11c-0.164-0.439-0.33-1.595-0.33-2.475
		c1.484-0.165,3.301-0.551,4.4-0.936c0.164-1.209,0.219-1.979,0.219-3.079v-9.239c0-4.125-0.66-7.149-5.004-7.149
		c-2.254,0-4.564,0.88-6.93,2.529V30.75c0,1.485,0.057,2.805,0.166,4.125c1.484,0.165,3.135,0.55,4.125,0.99
		c0,0.824-0.111,1.979-0.33,2.475c-1.486-0.055-4.84-0.11-6.16-0.11c-2.254,0-4.564,0.11-6.654,0.11
		c-0.219-0.439-0.385-1.595-0.385-2.475c1.539-0.165,3.299-0.551,4.4-0.936c0.164-1.209,0.219-1.979,0.219-3.079V16.837
		c-1.43-0.44-2.914-0.715-4.344-0.88c-0.221-0.715-0.33-1.485-0.221-2.145c2.035-0.825,5.004-1.705,7.809-1.98L159.223,12.218z"/>
	<path d="M195.906,11.668c7.588,0,9.789,5.06,9.789,9.844c0,1.265-0.111,2.695-0.275,3.41l-0.439,0.44
		c-2.256-0.055-5.83-0.11-9.955-0.11h-6.379c0.275,4.455,2.09,9.844,7.479,9.844c2.42,0,5.336-0.66,8.744-1.98
		c0.66,0.495,0.881,1.154,0.936,1.98c-2.529,1.704-7.039,3.959-10.613,3.959c-7.865,0-11.164-5.829-11.164-13.309
		C184.027,18.927,188.922,11.668,195.906,11.668z M188.756,22.392h5.391c2.914,0,5.334-0.11,6.709-0.22
		c0-3.52-0.826-6.929-5.719-6.929c-1.156,0-3.08,0.385-3.74,1.045C190.131,17.663,189.143,19.807,188.756,22.392z"/>
	<path d="M213.561,15.792c-1.045-0.22-2.693-0.55-4.123-0.715c-0.221-0.715-0.221-1.485-0.111-2.2c1.266-0.33,2.695-0.55,4.234-0.66
		l1.816-7.479c0.879-0.055,1.76-0.055,2.805,0.33v7.259l8.578,0.11c0,1.21-0.055,2.255-0.221,3.354h-8.357v13.309
		c0,4.014,0.824,6.049,2.584,6.049c1.924,0,3.465-0.44,5.443-1.155c0.605,0.604,0.936,1.43,0.936,2.475
		c-2.199,1.319-5.389,2.585-8.523,2.585c-3.74,0-5.061-2.805-5.061-7.864V15.792z"/>
</g>
<g>
	<path d="M8.676,56.9c-0.769-0.031-1.553-0.063-2.257-0.063H5.411l-0.913,2.081l1.296,0.288c-0.032,0.352-0.096,0.672-0.224,0.976
		C4.978,60.15,4.114,60.15,3.521,60.15c-0.704,0-1.28,0.031-1.809,0.031c-0.048-0.319-0.032-0.656,0.016-0.976
		c0.4-0.049,0.816-0.16,1.232-0.305l4.274-9.283c0.528-0.16,1.184-0.257,1.92-0.257l2.001,9.54c0.4,0.048,0.752,0.16,1.072,0.305
		c-0.032,0.352-0.096,0.672-0.224,0.976c-0.512-0.031-1.393-0.031-2.113-0.031c-0.864,0-1.617,0.031-2.289,0.031
		c-0.048-0.319-0.048-0.656,0.016-0.976l1.457-0.288L8.676,56.9z M5.938,55.636h2.481l-0.592-3.024l0.145-1.457H7.923L5.938,55.636z
		"/>
	<path d="M14.53,53.779c-0.464-0.112-0.896-0.16-1.36-0.16c-0.064-0.224-0.08-0.512,0.016-0.8c0.528-0.305,1.201-0.496,2.033-0.496
		c0.848,0,1.248,0.399,1.248,1.088v0.208c0.945-0.88,1.937-1.36,2.929-1.36c1.073,0,1.521,0.736,1.521,1.585
		c0,1.056-0.4,3.009-0.8,4.93c0.464-0.08,0.96-0.208,1.376-0.384c0.24,0.176,0.384,0.416,0.432,0.752
		c-0.592,0.561-1.713,1.217-2.769,1.217c-0.769,0-1.057-0.465-1.057-0.993c0-0.159,0.016-0.336,0.048-0.512
		c0.352-1.729,0.768-3.762,0.768-4.21c0-0.479-0.048-0.848-0.288-0.992c-0.769,0.192-1.504,0.624-2.337,1.28
		c-0.192,1.569-0.4,3.201-0.56,4.818c-0.048,0.384-1.057,0.544-1.985,0.464l-0.176-0.16c0.352-1.824,0.608-3.473,0.816-5.17
		L14.53,53.779z"/>
	<path d="M25.921,55.845c0-3.33,2-6.691,5.602-6.691c2.577,0,3.89,2.001,3.89,4.61c0,3.329-2.001,6.69-5.603,6.69
		C27.218,60.454,25.921,58.453,25.921,55.845z M31.908,58.533c0.64-0.72,1.424-2.064,1.424-4.241c0-1.953-0.688-3.618-2.401-3.618
		c-0.576,0-1.056,0.16-1.521,0.4c-0.625,0.688-1.409,2.065-1.409,4.242c0,1.952,0.672,3.617,2.401,3.617
		C30.979,58.934,31.459,58.789,31.908,58.533z"/>
	<path d="M42.083,56.9c-0.769-0.031-1.553-0.063-2.257-0.063h-1.008l-0.913,2.081l1.296,0.288c-0.032,0.352-0.096,0.672-0.224,0.976
		c-0.592-0.031-1.457-0.031-2.049-0.031c-0.704,0-1.28,0.031-1.809,0.031c-0.048-0.319-0.032-0.656,0.016-0.976
		c0.4-0.049,0.816-0.16,1.232-0.305l4.274-9.283c0.528-0.16,1.184-0.257,1.92-0.257l2.001,9.54c0.4,0.048,0.752,0.16,1.072,0.305
		c-0.032,0.352-0.096,0.672-0.224,0.976C44.9,60.15,44.02,60.15,43.3,60.15c-0.864,0-1.617,0.031-2.289,0.031
		c-0.048-0.319-0.048-0.656,0.016-0.976l1.457-0.288L42.083,56.9z M39.346,55.636h2.481l-0.592-3.024l0.144-1.457h-0.048
		L39.346,55.636z"/>
	<path d="M51.489,50.898c-0.432,0.048-0.88,0.144-1.28,0.24c-0.176-0.337-0.224-0.721-0.176-1.169
		c1.409-0.4,2.817-0.624,4.514-0.624c2.305,0,3.681,0.992,3.681,2.657c0,2.337-2.257,4.306-4.466,4.306
		c-0.256,0-0.608,0-0.976-0.048l-0.16,1.312c-0.064,0.464-0.096,0.912-0.112,1.328c0.608,0.048,1.153,0.16,1.617,0.305
		c-0.032,0.352-0.096,0.672-0.24,0.976c-0.641-0.031-1.729-0.031-2.577-0.031c-0.88,0-1.617,0.031-2.273,0.031
		c-0.048-0.319-0.032-0.656,0.016-0.976c0.432-0.049,0.88-0.16,1.344-0.305c0.096-0.304,0.144-0.64,0.192-0.977L51.489,50.898z
		 M53.49,50.69l-0.528,4.193c0.304,0.016,0.544,0.016,0.736,0.016c0.705,0,1.249-0.144,1.617-0.304
		c0.561-0.512,0.816-1.265,0.816-2.033c0-1.008-0.833-1.872-2.081-1.872H53.49z"/>
	<path d="M60.225,53.779c-0.464-0.112-0.896-0.16-1.36-0.16c-0.064-0.224-0.08-0.512,0.016-0.8c0.528-0.305,1.201-0.496,2.033-0.496
		c0.848,0,1.248,0.399,1.248,1.088c0,0.145,0,0.272-0.032,0.448l-0.064,0.384c0.688-1.12,1.489-2.032,2.225-2.032
		c0.768,0,1.216,0.864,1.216,1.408c0,0.368-0.624,0.977-1.28,1.249c-0.192-0.272-0.48-0.576-0.816-0.816
		c-0.576,0.512-1.072,1.072-1.537,1.776c-0.16,1.297-0.32,2.625-0.448,3.922c-0.048,0.384-1.057,0.544-1.985,0.464l-0.176-0.16
		c0.352-1.824,0.608-3.473,0.816-5.17L60.225,53.779z"/>
	<path d="M67.617,57.221c0.08,0.721,0.305,1.329,0.608,1.633c0.961-0.128,2.049-0.448,3.201-1.024
		c0.272,0.224,0.416,0.48,0.433,0.832c-1.505,1.041-3.058,1.761-4.482,1.761c-0.704,0-1.232-0.448-1.488-1.104
		c-0.208-0.576-0.272-1.345-0.272-2.08c0-2.914,1.745-4.979,4.227-4.979c1.393,0,2.08,1.104,2.08,2.737
		C71.923,55.636,69.826,56.501,67.617,57.221z M67.586,56.116c1.024-0.4,1.792-0.769,2.353-1.137c0-0.688-0.304-1.344-0.864-1.344
		c-0.192,0-0.368,0.031-0.576,0.111C68.065,54.18,67.665,55.092,67.586,56.116z"/>
	<path d="M72.64,59.27c0-0.384,0.225-0.832,0.545-1.137c0.624,0.528,1.264,0.833,1.952,0.833c0.24,0,0.545-0.064,0.753-0.177
		c0.096-0.159,0.16-0.384,0.16-0.64c0-0.496-0.881-1.137-1.425-1.505c-0.704-0.48-1.201-1.089-1.201-1.904
		c0-1.217,1.473-2.434,2.882-2.434c1.057,0,2.064,0.32,2.064,0.784c0,0.593-0.256,1.073-0.752,1.393
		c-0.48-0.464-1.057-0.768-1.537-0.768c-0.191,0-0.432,0.016-0.64,0.111c-0.097,0.145-0.145,0.288-0.145,0.513
		c0,0.448,0.673,0.944,1.297,1.345c0.864,0.56,1.376,1.2,1.376,2.097c0,1.072-1.296,2.593-3.217,2.593
		c-0.752,0-1.329-0.096-1.777-0.368C72.72,59.846,72.64,59.558,72.64,59.27z"/>
	<path d="M79.056,59.27c0-0.384,0.225-0.832,0.545-1.137c0.624,0.528,1.264,0.833,1.952,0.833c0.24,0,0.545-0.064,0.753-0.177
		c0.096-0.159,0.16-0.384,0.16-0.64c0-0.496-0.881-1.137-1.425-1.505c-0.704-0.48-1.201-1.089-1.201-1.904
		c0-1.217,1.473-2.434,2.882-2.434c1.057,0,2.064,0.32,2.064,0.784c0,0.593-0.256,1.073-0.752,1.393
		c-0.48-0.464-1.057-0.768-1.537-0.768c-0.191,0-0.432,0.016-0.64,0.111c-0.097,0.145-0.145,0.288-0.145,0.513
		c0,0.448,0.673,0.944,1.297,1.345c0.864,0.56,1.376,1.2,1.376,2.097c0,1.072-1.296,2.593-3.217,2.593
		c-0.752,0-1.329-0.096-1.777-0.368C79.136,59.846,79.056,59.558,79.056,59.27z"/>
	<path d="M90.4,52.483l0.225-1.409c0.271-1.616,1.648-3.073,3.569-3.073c0.992,0,1.696,0.256,2.081,0.752
		c0.191,0.257-0.641,1.169-1.312,1.345c-0.433-0.384-0.944-0.624-1.457-0.624c-0.192,0-0.416,0.032-0.592,0.096
		c-0.288,0.288-0.528,1.681-0.688,2.914c0.672,0.016,1.28,0.048,1.841,0.128c0,0.479-0.064,0.88-0.225,1.232h-1.776l-0.464,4.018
		c-0.225,1.904-0.448,3.89-0.641,5.906c-0.048,0.384-1.024,0.544-2.001,0.464l-0.16-0.16c0.336-1.824,0.576-3.473,0.801-5.17
		l0.496-3.97l0.128-1.088h-1.457c0-0.545,0.097-1.36,0.368-1.36H90.4z"/>
	<path d="M94.384,57.237c0-2.802,1.602-4.979,4.338-4.979c1.841,0,2.449,1.776,2.449,3.186c0,2.801-1.633,4.978-4.401,4.978
		C94.992,60.422,94.384,58.63,94.384,57.237z M98.418,58.854c0.384-0.464,0.784-1.537,0.784-2.705c0-1.665-0.384-2.529-1.2-2.529
		c-0.305,0-0.641,0.08-0.864,0.208c-0.4,0.448-0.801,1.489-0.801,2.722c0,1.633,0.353,2.513,1.249,2.513
		C97.857,59.062,98.193,58.966,98.418,58.854z"/>
	<path d="M103.521,53.779c-0.464-0.112-0.896-0.16-1.36-0.16c-0.064-0.224-0.08-0.512,0.016-0.8c0.528-0.305,1.2-0.496,2.033-0.496
		c0.848,0,1.248,0.399,1.248,1.088c0,0.145,0,0.272-0.032,0.448l-0.063,0.384c0.688-1.12,1.488-2.032,2.225-2.032
		c0.769,0,1.217,0.864,1.217,1.408c0,0.368-0.624,0.977-1.28,1.249c-0.192-0.272-0.48-0.576-0.816-0.816
		c-0.576,0.512-1.072,1.072-1.537,1.776c-0.16,1.297-0.32,2.625-0.448,3.922c-0.048,0.384-1.057,0.544-1.984,0.464l-0.176-0.16
		c0.352-1.824,0.607-3.473,0.815-5.17L103.521,53.779z"/>
	<path d="M113.487,57.941l0.881-7.06c-0.4,0.064-0.769,0.145-1.169,0.257c-0.224-0.337-0.288-0.721-0.208-1.169
		c1.553-0.432,3.073-0.624,4.514-0.624c2.161,0,3.25,0.864,3.25,2.257c0,1.024-0.704,1.953-1.729,2.513
		c1.248,0.385,1.92,1.297,1.92,2.401c0,1.809-1.601,3.697-4.001,3.697c-0.816,0-1.809-0.063-2.897-0.063
		c-0.752,0-1.408,0.031-2.113,0.031c-0.048-0.304-0.048-0.656,0.017-0.976c0.464-0.049,0.929-0.16,1.345-0.305
		C113.407,58.565,113.439,58.277,113.487,57.941z M115.824,55.22l-0.464,3.618h1.28c0.641,0,1.201-0.129,1.569-0.288
		c0.399-0.417,0.656-1.073,0.656-1.665c0-0.849-0.561-1.713-2.033-1.713C116.529,55.172,116.209,55.188,115.824,55.22z
		 M117.281,53.892c0.849-0.288,1.393-1.089,1.393-1.761c0-1.009-0.784-1.473-1.681-1.473c-0.176,0-0.368,0-0.593,0.016l-0.416,3.298
		C116.449,53.924,116.881,53.907,117.281,53.892z"/>
	<path d="M123.472,53.779c-0.464-0.112-0.896-0.16-1.36-0.16c-0.064-0.224-0.097-0.512,0-0.8c0.528-0.305,1.216-0.496,2.064-0.496
		s1.232,0.384,1.232,1.056c0,0.177,0,0.32-0.032,0.48l-0.656,4.914c0.497-0.096,0.977-0.272,1.377-0.448
		c0.225,0.145,0.4,0.448,0.416,0.736c-0.592,0.624-1.856,1.297-2.785,1.297c-0.704,0-1.008-0.385-1.008-1.057
		c0-0.256,0.031-0.544,0.08-0.849C122.991,57.221,123.151,56.116,123.472,53.779z M123.344,50.194c0-0.673,0.608-1.505,1.328-1.505
		c0.561,0,1.152,0.432,1.152,1.057c0,0.704-0.592,1.44-1.328,1.488C123.968,51.234,123.344,50.771,123.344,50.194z"/>
	<path d="M128.688,49.441c-0.479-0.111-0.912-0.16-1.376-0.16c-0.064-0.208-0.064-0.496,0.016-0.8
		c0.528-0.288,1.217-0.48,2.049-0.48c0.864,0,1.265,0.4,1.265,1.089c0,0.144-0.016,0.271-0.032,0.448l-0.544,4.129
		c0.896-0.88,1.809-1.36,2.705-1.36c0.832,0,1.28,0.448,1.44,1.121c0.128,0.527,0.145,1.168,0.145,1.84
		c0,2.546-1.345,5.154-3.89,5.154c-1.2,0-2.241-0.32-3.153-0.912c0.08-0.304,0.128-0.544,0.176-0.849L128.688,49.441z
		 M129.904,54.996l-0.48,3.682c0.433,0.24,0.881,0.384,1.329,0.384c0.304,0,0.592-0.064,0.784-0.144
		c0.464-0.497,0.864-1.633,0.864-3.17c0-1.008-0.096-1.744-0.288-2.032C131.394,53.875,130.625,54.372,129.904,54.996z"/>
	<path d="M137.696,58.773c0.48-0.096,0.944-0.272,1.36-0.448c0.225,0.145,0.4,0.448,0.416,0.736
		c-0.576,0.624-1.841,1.297-2.753,1.297c-0.704,0-1.024-0.385-1.024-1.057c0-0.256,0.032-0.561,0.08-0.864l1.185-8.996
		c-0.464-0.111-0.912-0.16-1.377-0.16c-0.063-0.208-0.063-0.496,0.032-0.8c0.528-0.288,1.201-0.48,2.033-0.48
		c0.864,0,1.265,0.4,1.265,1.089c0,0.144,0,0.271-0.032,0.448L137.696,58.773z"/>
	<path d="M142.288,57.221c0.08,0.721,0.305,1.329,0.608,1.633c0.961-0.128,2.049-0.448,3.201-1.024
		c0.272,0.224,0.416,0.48,0.433,0.832c-1.505,1.041-3.058,1.761-4.482,1.761c-0.704,0-1.232-0.448-1.488-1.104
		c-0.208-0.576-0.271-1.345-0.271-2.08c0-2.914,1.744-4.979,4.226-4.979c1.393,0,2.08,1.104,2.08,2.737
		C146.594,55.636,144.497,56.501,142.288,57.221z M142.257,56.116c1.024-0.4,1.792-0.769,2.353-1.137
		c0-0.688-0.304-1.344-0.864-1.344c-0.192,0-0.368,0.031-0.576,0.111C142.736,54.18,142.337,55.092,142.257,56.116z"/>
	<path d="M158.914,54.932l0.017,0.064h0.576c0.736,0,1.473,0.432,1.473,1.312c0,2.272-3.058,4.098-6.323,4.098
		c-2.465,0-3.777-1.217-3.777-2.978c0-1.28,0.864-2.545,2.257-3.169c-0.544-0.4-0.816-1.057-0.816-1.761
		c0-1.648,2.065-3.298,4.082-3.298c0.864,0,1.681,0.129,2.497,0.433c-0.145,1.024-0.368,1.984-0.736,2.833
		c-0.4,0.064-0.801,0.064-1.169-0.112c0.048-0.479,0.048-1.04-0.016-1.521c-0.288-0.08-0.688-0.111-1.041-0.111
		c-0.384,0-0.768,0.063-1.2,0.224c-0.288,0.32-0.48,0.752-0.48,1.28c0,0.673,0.289,1.345,0.961,1.345
		c0.16,0,0.384-0.016,0.576-0.048l0.16,0.16c0.144,0.624-0.192,1.345-0.673,1.345c-0.607,0-1.2,0.096-1.744,0.368
		c-0.384,0.416-0.576,0.88-0.576,1.488c0,1.168,0.88,2.001,2.593,2.001c1.329,0,2.289-0.305,3.281-1.024
		c0.177-0.32,0.225-0.624,0.225-0.896c0-0.576-0.353-1.041-1.073-1.041c-0.319,0-0.735,0.097-1.184,0.337
		c-0.305-0.208-0.497-0.513-0.545-0.896c1.969-1.041,3.569-2.209,3.986-4.034l0.176-0.16c0.977-0.079,1.793,0.305,1.793,0.801
		c0,0.864-1.089,1.889-2.481,2.562L158.914,54.932z"/>
	<path d="M179.22,58.854c0.368-1.729,0.784-3.762,0.784-4.21c0-0.479-0.048-0.848-0.288-0.992c-0.784,0.192-1.521,0.624-2.337,1.28
		c-0.208,1.569-0.416,3.186-0.576,4.818c-0.048,0.384-1.057,0.544-2.001,0.464l-0.176-0.16c0.352-1.824,0.592-3.473,0.816-5.17
		l0.56-4.098h-3.761l-0.865,6.787c-0.063,0.464-0.096,0.912-0.111,1.328c0.608,0.048,1.152,0.16,1.616,0.305
		c-0.032,0.352-0.096,0.672-0.24,0.976c-0.64-0.031-1.712-0.031-2.608-0.031c-1.041,0-1.905,0.031-2.657,0.031
		c-0.064-0.319-0.064-0.656-0.017-0.976c0.576-0.049,1.169-0.16,1.777-0.305c0.096-0.304,0.144-0.64,0.191-0.977l0.913-7.139h-2.001
		c-0.192,0.656-0.368,1.377-0.496,2.064c-0.368,0.097-0.753,0.112-1.201,0c-0.031-0.976,0.032-1.937,0.257-3.265l0.16-0.16
		c0.928,0.032,2.48,0.032,3.537,0.032h1.809h2.385c0.528-0.288,1.201-0.48,2.049-0.48c0.864,0,1.249,0.4,1.249,1.089
		c0,0.144,0,0.271-0.032,0.447l-0.4,3.09c0.944-0.864,1.953-1.345,2.93-1.345c1.056,0,1.504,0.736,1.504,1.585
		c0,1.056-0.384,3.009-0.784,4.93c0.465-0.08,0.961-0.208,1.377-0.384c0.24,0.176,0.368,0.416,0.416,0.752
		c-0.576,0.561-1.713,1.217-2.753,1.217c-0.769,0-1.072-0.465-1.072-0.993C179.172,59.206,179.188,59.029,179.22,58.854z"/>
	<path d="M185.791,57.221c0.08,0.721,0.305,1.329,0.608,1.633c0.961-0.128,2.049-0.448,3.201-1.024
		c0.272,0.224,0.416,0.48,0.433,0.832c-1.505,1.041-3.058,1.761-4.482,1.761c-0.704,0-1.232-0.448-1.488-1.104
		c-0.208-0.576-0.272-1.345-0.272-2.08c0-2.914,1.745-4.979,4.227-4.979c1.393,0,2.08,1.104,2.08,2.737
		C190.097,55.636,188,56.501,185.791,57.221z M185.76,56.116c1.024-0.4,1.792-0.769,2.353-1.137c0-0.688-0.304-1.344-0.864-1.344
		c-0.192,0-0.368,0.031-0.576,0.111C186.239,54.18,185.839,55.092,185.76,56.116z"/>
	<path d="M191.149,57.237c0-2.802,1.602-4.979,4.338-4.979c1.841,0,2.449,1.776,2.449,3.186c0,2.801-1.633,4.978-4.401,4.978
		C191.758,60.422,191.149,58.63,191.149,57.237z M195.184,58.854c0.384-0.464,0.784-1.537,0.784-2.705
		c0-1.665-0.384-2.529-1.2-2.529c-0.305,0-0.641,0.08-0.864,0.208c-0.4,0.448-0.801,1.489-0.801,2.722
		c0,1.633,0.353,2.513,1.249,2.513C194.623,59.062,194.959,58.966,195.184,58.854z"/>
	<path d="M201.231,58.773c0.48-0.096,0.944-0.272,1.36-0.448c0.225,0.145,0.4,0.448,0.416,0.736
		c-0.576,0.624-1.841,1.297-2.753,1.297c-0.704,0-1.024-0.385-1.024-1.057c0-0.256,0.032-0.561,0.08-0.864l1.185-8.996
		c-0.464-0.111-0.912-0.16-1.377-0.16c-0.063-0.208-0.063-0.496,0.032-0.8c0.528-0.288,1.201-0.48,2.033-0.48
		c0.864,0,1.265,0.4,1.265,1.089c0,0.144,0,0.271-0.032,0.448L201.231,58.773z"/>
	<path d="M203.823,57.237c0-2.802,1.601-4.979,4.337-4.979c1.841,0,2.449,1.776,2.449,3.186c0,2.801-1.633,4.978-4.401,4.978
		C204.431,60.422,203.823,58.63,203.823,57.237z M207.856,58.854c0.384-0.464,0.784-1.537,0.784-2.705
		c0-1.665-0.384-2.529-1.2-2.529c-0.305,0-0.641,0.08-0.864,0.208c-0.4,0.448-0.801,1.489-0.801,2.722
		c0,1.633,0.353,2.513,1.249,2.513C207.296,59.062,207.632,58.966,207.856,58.854z"/>
	<path d="M218.705,53.043c-0.063,0.288-0.112,0.513-0.16,0.801l-0.512,4.018c-0.145,1.185-0.288,2.209-0.608,3.633
		c-0.336,1.489-1.921,2.93-3.905,2.93c-1.104,0-1.953-0.272-2.337-0.673c-0.112-0.096-0.145-0.304-0.145-0.512
		c0-0.496,0.416-1.137,0.752-1.408h0.24c0.416,0.704,1.089,1.136,1.938,1.136c0.416,0,0.96-0.128,1.232-0.319
		c0.336-1.104,0.544-2.226,0.72-3.474c-0.848,0.736-1.713,1.2-2.577,1.2s-1.296-0.464-1.473-1.137c-0.144-0.544-0.16-1.2-0.16-1.792
		c0-2.609,1.457-5.187,3.826-5.187c0.977,0,2.177,0.24,3.201,0.736L218.705,53.043z M216.08,57.861l0.513-3.97
		c-0.417-0.176-0.849-0.272-1.232-0.272c-0.305,0-0.576,0.048-0.816,0.128c-0.48,0.496-0.881,1.633-0.881,3.17
		c0,0.992,0.096,1.744,0.305,2.032C214.64,58.821,215.376,58.405,216.08,57.861z"/>
	<path d="M223.439,60.502c-1.217,1.377-1.921,2.577-2.513,3.874l-0.192,0.128c-0.769-0.017-1.537-0.513-1.537-0.864
		c0-0.433,1.361-2.049,2.626-3.105v-1.345c0-2.017-0.192-3.665-0.913-5.266c-0.464,0.031-0.832,0.096-1.216,0.191
		c-0.209-0.128-0.337-0.496-0.337-0.832c0.528-0.561,1.569-0.977,2.177-0.977c0.641,0,1.073,0.385,1.281,0.881
		c0.336,0.768,0.544,2.337,0.544,4.065c0,0.544,0,1.088-0.048,1.536h0.048c1.232-1.664,1.713-3.329,1.713-5.394
		c0-0.288-0.032-0.608-0.08-0.912l0.16-0.16c0.752,0,1.488,0.111,1.696,0.527c0.145,0.289,0.176,0.641,0.176,0.961
		C227.024,55.765,225.632,58.021,223.439,60.502z"/>
</g>
<g>
</g>
<g>
</g>
<g>
</g>
<g>
</g>
<g>
</g>
<g>
</g>
</svg>
